<?xml version="1.0" standalone="no"?>
<!DOCTYPE svg PUBLIC "-//W3C//DTD SVG 20010904//EN"
 "http://www.w3.org/TR/2001/REC-SVG-20010904/DTD/svg10.dtd">
<svg version="1.0" xmlns="http://www.w3.org/2000/svg"
 width="300.000000pt" height="300.000000pt" viewBox="0 0 300.000000 300.000000"
 preserveAspectRatio="xMidYMid meet">
<metadata>
Created by potrace 1.10, written by Peter Selinger 2001-2011
</metadata>
<g transform="translate(0.000000,300.000000) scale(0.100000,-0.100000)"
fill="#000000" stroke="none">
<path d="M1297 2994 c-3 -5 50 -9 116 -9 71 0 130 -5 142 -11 11 -6 38 -14 60
-17 l40 -6 -35 10 c-19 6 -46 16 -60 21 -31 14 -255 23 -263 12z"/>
<path d="M1223 2973 c9 -2 23 -2 30 0 6 3 -1 5 -18 5 -16 0 -22 -2 -12 -5z"/>
<path d="M1160 2960 l-25 -8 27 -1 c15 -1 30 4 33 9 7 11 0 11 -35 0z"/>
<path d="M1379 2966 c-3 -3 -35 -8 -73 -11 -38 -4 -87 -13 -110 -20 -39 -13
-39 -14 -6 -9 176 27 263 33 313 21 15 -4 27 -3 27 1 0 14 -139 30 -151 18z"/>
<path d="M1100 2940 c-8 -5 -10 -10 -5 -10 6 0 17 5 25 10 8 5 11 10 5 10 -5
0 -17 -5 -25 -10z"/>
<path d="M1719 2919 c35 -16 65 -28 67 -26 5 5 -109 57 -122 56 -5 0 20 -14
55 -30z"/>
<path d="M1595 2925 c17 -7 32 -11 35 -9 7 8 -24 24 -45 23 -15 0 -13 -4 10
-14z"/>
<path d="M1031 2909 c-13 -11 -28 -19 -35 -19 -6 0 -26 -14 -45 -30 -18 -16
-37 -28 -41 -25 -13 8 -190 -150 -190 -171 0 -7 -3 -14 -7 -16 -5 -1 -21 -23
-38 -48 -16 -25 -36 -51 -42 -58 -7 -7 -13 -18 -13 -24 0 -5 -9 -22 -19 -36
-10 -15 -20 -31 -21 -37 -1 -5 -6 -19 -10 -31 -5 -11 -13 -40 -20 -65 -7 -24
-17 -53 -23 -64 -14 -26 -22 -266 -10 -330 14 -81 1 -180 -28 -211 -44 -47
-35 -227 15 -308 8 -12 14 -43 15 -71 0 -27 5 -61 10 -75 5 -14 15 -45 22 -70
7 -25 21 -62 32 -84 10 -21 20 -47 22 -57 2 -11 13 -32 24 -48 12 -16 21 -31
21 -34 0 -3 22 -52 50 -109 27 -57 50 -110 50 -119 0 -8 5 -20 12 -27 7 -7 8
-12 4 -12 -5 0 -4 -6 1 -13 6 -6 18 -39 28 -72 10 -33 26 -71 35 -85 10 -14
20 -38 24 -55 4 -16 42 -100 84 -185 63 -129 85 -164 133 -211 31 -31 83 -69
114 -84 55 -26 61 -26 203 -22 81 2 157 6 169 10 22 6 109 52 129 68 6 5 15 5
19 1 5 -4 5 -1 1 6 -5 9 -1 15 13 19 12 3 21 8 21 12 0 4 8 16 18 27 50 57 87
114 166 254 47 85 91 162 96 170 20 29 90 178 90 192 0 8 4 18 10 24 12 12
108 283 115 327 7 37 6 36 35 42 26 5 130 66 130 76 0 5 9 18 49 65 12 14 42
72 41 79 -1 3 5 29 13 58 38 142 46 236 23 290 -17 42 -70 87 -102 87 -24 0
-24 0 -18 88 3 48 1 121 -4 162 -8 70 -9 67 -8 -60 1 -171 -8 -230 -33 -223
-24 6 -33 -9 -23 -38 8 -19 9 -20 15 -5 4 10 11 15 16 11 6 -3 15 3 20 14 15
28 41 34 68 15 33 -21 53 -72 53 -136 0 -77 -34 -229 -65 -293 -34 -69 -109
-138 -170 -156 -34 -10 -45 -18 -46 -34 0 -20 0 -20 -10 0 -7 16 -8 13 -4 -11
3 -17 -1 -51 -9 -75 -9 -24 -16 -51 -16 -60 0 -8 -7 -24 -16 -35 -15 -18 -15
-17 -10 13 3 20 1 35 -7 39 -7 4 -9 4 -5 -1 4 -4 3 -16 -3 -26 -6 -13 -6 -24
2 -37 9 -14 5 -34 -16 -95 -31 -86 -42 -99 -62 -72 -13 19 -18 9 -7 -19 3 -9
12 -12 22 -8 15 5 15 3 4 -11 -8 -8 -19 -15 -25 -13 -7 1 -9 1 -4 -1 11 -7 8
-51 -4 -58 -16 -11 -21 -1 -24 57 -3 59 -13 98 -25 98 -5 0 -10 8 -13 17 -2
10 -2 -11 -1 -45 1 -35 -1 -73 -4 -83 -10 -25 -3 -99 9 -99 5 0 7 24 6 54 -2
29 0 62 5 72 7 18 8 18 6 -1 -1 -11 5 -40 12 -64 11 -34 11 -46 2 -49 -7 -2
-12 -12 -12 -23 0 -10 -4 -19 -10 -19 -5 0 -10 -7 -10 -15 0 -8 -5 -15 -10
-15 -14 0 -62 31 -77 50 -7 8 -13 10 -13 4 0 -5 5 -15 12 -22 6 -6 11 -29 10
-52 -1 -22 3 -40 9 -40 6 0 8 9 4 21 -5 16 -4 19 5 14 9 -5 10 -1 5 15 -6 20
-5 21 14 11 21 -12 29 -41 11 -41 -5 0 -10 -9 -10 -19 0 -11 -4 -21 -8 -23 -4
-1 -20 -25 -34 -53 -15 -27 -32 -49 -38 -47 -6 1 -9 -2 -5 -7 7 -12 -37 -98
-70 -137 -5 -6 -19 -24 -30 -40 -48 -68 -81 -95 -171 -140 -93 -47 -100 -49
-195 -52 -115 -4 -171 10 -265 69 -44 28 -73 57 -107 106 -26 38 -47 74 -47
81 0 6 -4 12 -10 12 -5 0 -10 6 -10 13 0 7 -9 30 -20 52 -11 22 -20 44 -20 50
0 6 -5 16 -12 23 -14 14 -58 115 -52 121 2 2 11 -6 21 -18 l18 -22 13 21 c7
11 8 20 3 20 -5 0 -11 -6 -14 -12 -3 -9 -9 -7 -19 6 -9 12 -20 16 -28 11 -9
-6 -10 -2 -5 15 4 12 3 20 -2 17 -5 -3 -14 10 -20 30 -10 32 -9 36 9 41 14 3
18 12 16 30 -2 17 2 26 14 27 13 3 15 -2 8 -25 -5 -19 -4 -30 3 -33 6 -2 7 -9
3 -15 -5 -9 -13 -9 -27 -2 -13 7 -19 7 -19 0 0 -5 7 -10 16 -10 8 0 12 -4 9
-10 -7 -12 5 -13 20 -2 10 7 35 56 35 69 0 3 -7 0 -15 -7 -13 -11 -14 -8 -8
20 5 29 4 32 -11 27 -14 -6 -16 -3 -11 16 4 12 11 26 16 31 12 13 12 36 0 36
-5 0 -12 -15 -15 -34 -4 -19 -13 -40 -22 -47 -8 -7 -13 -18 -10 -25 3 -8 -2
-21 -11 -30 -15 -15 -18 -13 -29 27 -7 23 -11 46 -8 51 3 4 0 8 -6 8 -7 0 -10
7 -6 15 3 8 1 15 -5 15 -6 0 -9 6 -6 14 3 8 2 16 -2 18 -13 5 -112 218 -106
228 3 5 -1 7 -9 4 -11 -4 -17 4 -22 30 -3 20 -10 39 -15 42 -21 12 -70 158
-62 182 3 6 0 12 -5 12 -5 0 -10 24 -11 54 -1 30 -11 75 -22 100 -13 31 -22
78 -26 144 -6 97 -5 99 21 119 15 12 26 31 26 44 0 13 5 40 10 60 6 20 12 83
14 140 5 109 11 163 21 179 4 6 8 23 11 38 11 66 45 203 60 238 16 38 50 87
92 132 34 37 26 46 -13 16 -19 -14 -35 -23 -35 -20 0 4 -6 1 -14 -6 -8 -7 -12
-16 -9 -20 2 -5 0 -8 -5 -8 -6 0 -13 -7 -16 -16 -5 -14 -4 -15 9 -4 9 8 15 8
15 2 0 -6 -10 -19 -23 -29 -13 -11 -28 -40 -36 -73 -7 -30 -18 -61 -24 -67 -5
-7 -6 -13 -3 -13 4 0 0 -7 -9 -16 -12 -12 -13 -19 -4 -30 9 -11 8 -14 -1 -14
-8 0 -10 -3 -7 -7 4 -3 2 -12 -4 -20 -9 -9 -8 -13 0 -13 7 0 6 -8 -4 -24 -20
-30 -29 -76 -15 -76 6 0 8 -5 4 -11 -3 -6 -7 -44 -7 -85 0 -41 -5 -74 -10 -74
-5 0 -7 24 -5 55 3 31 1 58 -3 61 -8 5 -5 84 7 154 14 92 88 290 107 290 6 0
8 3 4 6 -5 5 31 60 88 132 34 45 167 172 179 172 13 0 74 48 69 54 -4 3 0 6 8
6 26 1 92 37 77 42 -7 3 -24 -3 -37 -13z m989 -2119 c0 -5 -5 -10 -11 -10 -5
0 -7 5 -4 10 3 6 8 10 11 10 2 0 4 -4 4 -10z"/>
<path d="M1078 2893 c-32 -14 -58 -30 -58 -34 0 -5 8 -5 18 0 9 5 38 19 65 30
26 12 47 23 47 26 0 9 -13 5 -72 -22z"/>
<path d="M1669 2904 c19 -8 36 -12 39 -9 5 5 -43 25 -61 25 -7 -1 3 -7 22 -16z"/>
<path d="M1720 2884 c0 -6 65 -34 77 -34 9 1 -58 39 -69 40 -5 0 -8 -2 -8 -6z"/>
<path d="M1350 2850 c12 -8 8 -10 -15 -9 -51 1 -123 -9 -144 -21 -17 -9 -20
-8 -15 5 4 8 1 15 -5 15 -6 0 -11 -4 -11 -10 0 -5 -7 -7 -15 -3 -10 3 -15 1
-13 -8 2 -7 -6 -14 -17 -16 -17 -3 -18 -2 -5 7 12 9 8 10 -17 5 -22 -4 -33 -3
-33 5 0 6 -5 8 -11 4 -8 -5 -8 -9 1 -14 10 -6 9 -9 0 -15 -7 -4 -16 -1 -21 6
-5 8 -9 9 -9 3 0 -7 -9 -14 -20 -17 -13 -3 -20 0 -20 8 0 7 -6 16 -12 18 -7 3
-1 6 14 6 15 1 29 5 33 10 10 17 -11 20 -36 6 -13 -8 -31 -17 -39 -21 -29 -15
-180 -157 -180 -171 0 -2 -13 -18 -30 -36 -38 -41 -39 -60 -1 -23 16 16 34 26
39 22 10 -6 66 33 58 41 -2 3 -17 -4 -32 -14 -16 -10 -25 -12 -20 -5 4 7 26
22 49 33 23 10 53 28 67 39 l25 19 -39 -6 c-27 -4 -37 -3 -32 5 3 6 25 10 49
9 26 -1 41 2 40 9 -1 7 8 9 22 6 15 -2 25 0 25 7 0 7 -4 9 -10 6 -5 -3 -8 0
-5 7 3 7 16 13 29 13 18 0 22 -3 14 -12 -12 -15 3 -18 17 -4 6 5 32 12 59 16
27 3 53 8 58 11 10 6 57 16 78 17 8 0 21 5 29 11 11 8 13 8 7 -1 -4 -8 -1 -13
8 -13 9 0 16 5 16 11 0 7 9 9 23 5 48 -15 69 -17 62 -6 -9 14 18 13 33 -2 8
-8 15 -8 26 1 13 11 18 10 31 -3 9 -9 33 -16 53 -16 21 0 61 -9 91 -20 39 -14
59 -17 72 -9 15 8 17 6 12 -7 -5 -14 -2 -16 15 -12 11 3 23 1 25 -5 2 -7 6 -7
9 -1 4 5 0 18 -8 29 -8 10 -14 13 -14 7 0 -10 -3 -10 -14 0 -8 7 -12 18 -9 23
2 6 -5 -1 -18 -15 -20 -23 -21 -24 -15 -3 4 12 2 24 -3 28 -7 3 -8 0 -5 -9 3
-9 1 -16 -5 -16 -6 0 -11 5 -11 11 0 5 -4 7 -10 4 -5 -3 -10 -1 -10 4 0 6 -5
11 -11 11 -5 0 -7 -4 -4 -10 3 -5 1 -10 -4 -10 -6 0 -11 7 -11 15 0 11 -7 14
-25 9 -15 -4 -25 -2 -25 4 0 6 -15 10 -32 9 -22 -1 -32 2 -30 11 1 6 -2 12 -8
12 -5 0 -10 -4 -10 -9 0 -5 -24 -3 -52 5 -63 16 -68 17 -48 4z m-390 -74 c-7
-9 -16 -13 -21 -11 -4 3 -12 -3 -18 -12 -6 -10 -11 -14 -11 -10 0 4 -9 3 -20
-3 -14 -8 -20 -8 -20 0 0 6 7 13 16 17 9 3 27 17 41 31 18 17 28 21 35 14 8
-8 8 -15 -2 -26z"/>
<path d="M940 2790 c-9 -6 -10 -10 -3 -10 6 0 15 5 18 10 8 12 4 12 -15 0z"/>
<path d="M1850 2850 c8 -5 20 -10 25 -10 6 0 3 5 -5 10 -8 5 -19 10 -25 10 -5
0 -3 -5 5 -10z"/>
<path d="M1820 2830 c0 -6 9 -10 20 -10 11 0 20 -3 20 -7 0 -5 14 -16 30 -25
41 -23 38 -7 -2 17 -46 28 -68 36 -68 25z"/>
<path d="M1955 2786 c17 -7 39 -23 49 -35 11 -11 23 -21 28 -21 6 0 -9 16 -32
35 -23 19 -49 35 -58 35 -10 -1 -4 -7 13 -14z"/>
<path d="M1478 2753 c7 -3 16 -2 19 1 4 3 -2 6 -13 5 -11 0 -14 -3 -6 -6z"/>
<path d="M1747 2746 c-3 -8 1 -20 9 -26 11 -10 14 -9 14 8 0 25 -16 37 -23 18z"/>
<path d="M1965 2741 c11 -13 36 -34 55 -47 19 -13 52 -38 72 -56 21 -17 40
-29 43 -26 3 3 -27 30 -67 59 -40 29 -75 56 -78 59 -3 3 -14 12 -25 20 -20 15
-20 15 0 -9z"/>
<path d="M1098 2733 c7 -3 16 -2 19 1 4 3 -2 6 -13 5 -11 0 -14 -3 -6 -6z"/>
<path d="M1560 2730 c0 -6 7 -10 15 -10 8 0 15 2 15 4 0 2 -7 6 -15 10 -8 3
-15 1 -15 -4z"/>
<path d="M1780 2733 c1 -21 20 -35 39 -30 12 3 19 2 17 -2 -3 -4 -1 -13 5 -21
6 -11 9 -8 9 13 0 31 -27 48 -41 26 -7 -11 -9 -11 -9 4 0 9 -4 17 -10 17 -5 0
-10 -3 -10 -7z"/>
<path d="M1030 2726 c0 -2 7 -7 16 -10 8 -3 12 -2 9 4 -6 10 -25 14 -25 6z"/>
<path d="M1190 2710 c0 -5 4 -10 9 -10 6 0 13 5 16 10 3 6 -1 10 -9 10 -9 0
-16 -4 -16 -10z"/>
<path d="M2040 2716 c0 -2 7 -7 16 -10 8 -3 12 -2 9 4 -6 10 -25 14 -25 6z"/>
<path d="M1410 2701 c0 -5 5 -13 10 -16 6 -3 10 -2 10 4 0 5 -4 13 -10 16 -5
3 -10 2 -10 -4z"/>
<path d="M2135 2644 c33 -33 85 -86 114 -119 30 -33 47 -50 39 -37 -28 41
-169 192 -191 203 -12 6 5 -15 38 -47z"/>
<path d="M1763 2676 c4 -10 7 -22 7 -27 0 -5 16 -9 36 -9 28 0 35 -3 30 -15
-3 -8 -1 -15 3 -15 11 0 22 26 14 34 -4 3 -22 6 -40 6 -19 0 -32 3 -30 8 3 4
-2 14 -11 22 -14 13 -15 12 -9 -4z"/>
<path d="M1860 2681 c0 -12 29 -23 41 -15 5 3 9 -3 9 -12 0 -15 2 -16 13 -5
10 10 8 15 -7 27 -22 16 -56 19 -56 5z"/>
<path d="M1510 2670 c-8 -5 -12 -12 -9 -15 4 -3 12 1 19 10 14 17 11 19 -10 5z"/>
<path d="M1670 2671 c0 -5 11 -11 24 -13 15 -3 23 -1 20 6 -5 13 -44 19 -44 7z"/>
<path d="M1936 2654 c-9 -23 -2 -28 13 -10 7 8 8 17 3 20 -6 3 -13 -1 -16 -10z"/>
<path d="M1630 2640 c0 -5 5 -10 11 -10 5 0 7 5 4 10 -3 6 -8 10 -11 10 -2 0
-4 -4 -4 -10z"/>
<path d="M1960 2627 c0 -9 7 -17 15 -17 8 0 18 0 22 0 4 0 8 7 9 15 2 12 -1
13 -10 6 -9 -7 -16 -7 -24 1 -9 9 -12 8 -12 -5z"/>
<path d="M1870 2622 c0 -7 5 -12 11 -12 8 0 7 -5 -1 -15 -7 -9 -10 -18 -6 -22
3 -3 6 -1 6 5 0 6 7 12 16 14 14 3 13 6 -5 22 -12 11 -21 14 -21 8z"/>
<path d="M848 2613 c-18 -5 -33 -33 -18 -33 6 0 10 4 10 8 0 5 10 14 23 20 22
11 16 13 -15 5z"/>
<path d="M1780 2608 c0 -4 4 -8 9 -8 6 0 12 4 15 8 3 5 -1 9 -9 9 -8 0 -15 -4
-15 -9z"/>
<path d="M1570 2590 c-9 -6 -10 -10 -3 -10 6 0 15 5 18 10 8 12 4 12 -15 0z"/>
<path d="M2153 2586 c4 -10 7 -20 7 -22 0 -3 5 -2 10 1 6 3 10 0 10 -7 0 -7
10 -19 23 -27 l22 -14 -20 24 c-11 13 -29 33 -39 44 -18 17 -19 17 -13 1z"/>
<path d="M1478 2583 c7 -3 16 -2 19 1 4 3 -2 6 -13 5 -11 0 -14 -3 -6 -6z"/>
<path d="M2015 2570 c10 -11 21 -17 25 -15 5 3 11 0 13 -5 3 -6 4 -5 3 2 -2 7
-9 12 -15 10 -6 -1 -14 5 -17 13 -4 8 -11 15 -17 15 -5 0 -2 -9 8 -20z"/>
<path d="M1910 2565 c7 -9 15 -13 17 -11 7 7 -7 26 -19 26 -6 0 -6 -6 2 -15z"/>
<path d="M1956 2567 c3 -10 9 -15 12 -12 3 3 0 11 -7 18 -10 9 -11 8 -5 -6z"/>
<path d="M1820 2550 c0 -5 5 -10 11 -10 5 0 7 5 4 10 -3 6 -8 10 -11 10 -2 0
-4 -4 -4 -10z"/>
<path d="M2070 2549 c0 -5 9 -9 20 -9 11 0 20 2 20 4 0 2 -9 6 -20 9 -11 3
-20 1 -20 -4z"/>
<path d="M1875 2540 c-3 -5 -1 -10 4 -10 6 0 11 5 11 10 0 6 -2 10 -4 10 -3 0
-8 -4 -11 -10z"/>
<path d="M2010 2543 c0 -6 8 -17 18 -24 16 -13 16 -13 2 6 -8 11 -16 22 -17
24 -2 2 -3 0 -3 -6z"/>
<path d="M1446 2532 c-3 -5 1 -9 9 -9 8 0 12 4 9 9 -3 4 -7 8 -9 8 -2 0 -6 -4
-9 -8z"/>
<path d="M1917 2519 c6 -23 9 -24 16 -5 3 8 0 17 -7 19 -10 4 -12 -1 -9 -14z"/>
<path d="M1845 2510 c3 -5 8 -10 11 -10 2 0 4 5 4 10 0 6 -5 10 -11 10 -5 0
-7 -4 -4 -10z"/>
<path d="M1947 2513 c-4 -3 -7 -13 -7 -22 1 -13 2 -13 11 2 6 9 15 14 21 11 7
-4 8 -2 4 4 -8 13 -19 15 -29 5z"/>
<path d="M2098 2490 c2 -17 9 -33 16 -37 18 -12 36 -12 36 -1 0 6 -7 8 -15 5
-10 -5 -16 4 -21 28 -8 43 -22 47 -16 5z"/>
<path d="M2241 2482 c13 -16 25 -28 27 -27 7 6 -11 32 -30 44 -20 12 -20 11 3
-17z"/>
<path d="M1965 2480 c-3 -5 1 -10 9 -10 9 0 16 -5 16 -12 0 -6 2 -9 5 -6 7 7
-5 38 -15 38 -5 0 -12 -4 -15 -10z"/>
<path d="M2052 2456 c7 -8 15 -12 17 -11 5 6 -10 25 -20 25 -5 0 -4 -6 3 -14z"/>
<path d="M1745 2449 c-4 -6 -5 -12 -2 -15 2 -3 7 2 10 11 7 17 1 20 -8 4z"/>
<path d="M2010 2444 c0 -10 33 -33 48 -34 6 0 12 5 12 12 0 6 -3 8 -7 5 -3 -4
-17 0 -30 8 -13 9 -23 12 -23 9z"/>
<path d="M1940 2420 c6 -11 12 -20 14 -20 2 0 2 9 -1 20 -3 11 -9 20 -15 20
-5 0 -4 -9 2 -20z"/>
<path d="M2097 2421 c3 -12 9 -21 13 -21 5 0 11 -18 15 -40 4 -22 11 -38 16
-34 5 3 9 0 9 -5 0 -6 -5 -11 -11 -11 -15 0 -5 -66 13 -83 33 -33 43 -26 43
28 0 29 -3 51 -8 48 -4 -2 -5 -14 -1 -25 4 -13 2 -18 -4 -14 -6 4 -8 -2 -5
-14 3 -11 0 -20 -6 -20 -14 0 -14 65 0 92 6 11 7 18 2 15 -5 -3 -15 -1 -23 4
-13 8 -13 10 0 19 13 8 12 10 -4 10 -15 0 -18 5 -13 33 3 17 3 26 0 19 -4 -10
-9 -10 -23 3 -18 16 -18 16 -13 -4z"/>
<path d="M2317 2419 c4 -13 8 -18 11 -10 2 7 -1 18 -6 23 -8 8 -9 4 -5 -13z"/>
<path d="M1860 2420 c0 -5 4 -10 9 -10 5 0 18 -3 28 -7 17 -6 17 -6 1 10 -18
19 -38 22 -38 7z"/>
<path d="M2314 2340 c13 -39 28 -76 34 -82 12 -12 -6 54 -32 115 -25 58 -26
44 -2 -33z"/>
<path d="M1440 2379 c0 -5 5 -7 10 -4 6 3 10 8 10 11 0 2 -4 4 -10 4 -5 0 -10
-5 -10 -11z"/>
<path d="M1815 2380 c-3 -5 1 -10 10 -10 9 0 13 5 10 10 -3 6 -8 10 -10 10 -2
0 -7 -4 -10 -10z"/>
<path d="M2341 2377 c-1 -5 4 -18 10 -30 7 -12 18 -60 25 -107 l13 -85 -4 74
c-3 41 -14 92 -24 115 -11 22 -20 37 -20 33z"/>
<path d="M1970 2360 c0 -5 9 -10 19 -10 11 0 27 -7 36 -16 9 -9 18 -14 21 -11
7 7 -46 47 -62 47 -8 0 -14 -4 -14 -10z"/>
<path d="M2081 2333 c7 -12 15 -20 18 -17 3 2 -3 12 -13 22 -17 16 -18 16 -5
-5z"/>
<path d="M2007 2310 c3 -11 9 -22 13 -25 5 -3 6 4 3 15 -3 11 -9 22 -13 25 -5
3 -6 -4 -3 -15z"/>
<path d="M1706 2305 c4 -8 11 -15 16 -15 6 0 5 6 -2 15 -7 8 -14 15 -16 15 -2
0 -1 -7 2 -15z"/>
<path d="M2215 2309 c-4 -6 -4 -13 -1 -16 3 -4 6 -1 6 6 0 7 5 9 12 5 7 -4 8
-3 4 4 -9 15 -13 15 -21 1z"/>
<path d="M1815 2300 c-3 -5 -1 -10 4 -10 6 0 11 5 11 10 0 6 -2 10 -4 10 -3 0
-8 -4 -11 -10z"/>
<path d="M2040 2300 c0 -5 5 -10 11 -10 5 0 7 5 4 10 -3 6 -8 10 -11 10 -2 0
-4 -4 -4 -10z"/>
<path d="M2265 2300 c-3 -5 -1 -10 4 -10 6 0 11 5 11 10 0 6 -2 10 -4 10 -3 0
-8 -4 -11 -10z"/>
<path d="M1860 2275 c0 -8 5 -15 10 -15 6 0 10 7 10 15 0 8 -4 15 -10 15 -5 0
-10 -7 -10 -15z"/>
<path d="M1665 2270 c4 -6 11 -8 16 -5 14 9 11 15 -7 15 -8 0 -12 -5 -9 -10z"/>
<path d="M1784 2266 c11 -9 24 -16 30 -16 12 0 7 5 -24 19 -24 11 -24 11 -6
-3z"/>
<path d="M2222 2264 c-7 -8 -8 -14 -3 -14 10 0 25 19 20 25 -2 1 -10 -3 -17
-11z"/>
<path d="M1540 2262 c0 -5 7 -9 15 -9 8 0 12 4 9 9 -3 4 -9 8 -15 8 -5 0 -9
-4 -9 -8z"/>
<path d="M2101 2253 c0 -13 -5 -23 -11 -23 -5 0 -10 -5 -10 -12 0 -8 6 -7 16
4 9 8 14 24 11 34 -4 16 -5 15 -6 -3z"/>
<path d="M1781 2230 c-9 -5 -4 -7 13 -7 29 0 32 2 13 10 -8 3 -20 2 -26 -3z"/>
<path d="M2343 2220 c2 -11 9 -26 17 -33 10 -10 11 -9 4 3 -5 8 -7 23 -6 33 2
9 -1 17 -7 17 -6 0 -9 -9 -8 -20z"/>
<path d="M1946 2205 c-3 -8 -1 -15 4 -15 6 0 10 7 10 15 0 8 -2 15 -4 15 -2 0
-6 -7 -10 -15z"/>
<path d="M2013 2195 c0 -8 4 -15 9 -15 4 0 8 4 8 9 0 6 -4 12 -8 15 -5 3 -9
-1 -9 -9z"/>
<path d="M2217 2179 c-6 -42 -3 -46 10 -16 6 13 8 30 3 36 -5 8 -9 1 -13 -20z"/>
<path d="M2045 2190 c3 -5 8 -10 11 -10 2 0 4 5 4 10 0 6 -5 10 -11 10 -5 0
-7 -4 -4 -10z"/>
<path d="M2176 2178 c10 -13 20 -25 21 -27 2 -2 3 6 3 18 0 12 -4 19 -10 16
-5 -3 -10 -1 -10 4 0 6 -5 11 -12 11 -6 0 -3 -10 8 -22z"/>
<path d="M2090 2184 c0 -6 7 -19 15 -30 8 -10 14 -14 14 -9 0 6 -6 19 -14 29
-8 11 -15 15 -15 10z"/>
<path d="M2160 2156 c0 -9 7 -25 16 -34 15 -15 16 -14 9 8 -10 33 -25 49 -25
26z"/>
<path d="M2000 2144 c0 -8 5 -12 10 -9 6 3 10 10 10 16 0 5 -4 9 -10 9 -5 0
-10 -7 -10 -16z"/>
<path d="M2069 2138 c0 -13 -2 -38 -3 -55 l-4 -33 19 24 c23 29 24 37 4 30
-13 -5 -14 -2 -5 21 12 33 12 35 0 35 -5 0 -10 -10 -11 -22z"/>
<path d="M2241 2143 c-1 -17 16 -25 25 -12 4 7 3 9 -4 5 -5 -3 -13 0 -15 6 -4
9 -6 10 -6 1z"/>
<path d="M2358 2087 c2 -34 4 -75 4 -90 1 -16 4 -24 8 -17 8 13 1 151 -9 162
-3 4 -4 -21 -3 -55z"/>
<path d="M750 2125 c-7 -8 -8 -15 -2 -15 5 0 15 7 22 15 7 8 8 15 2 15 -5 0
-15 -7 -22 -15z"/>
<path d="M1620 2132 c0 -4 9 -13 20 -20 16 -10 20 -10 20 2 0 8 -7 17 -16 20
-20 8 -24 8 -24 -2z"/>
<path d="M1865 2130 c3 -5 11 -10 16 -10 6 0 7 5 4 10 -3 6 -11 10 -16 10 -6
0 -7 -4 -4 -10z"/>
<path d="M1490 2119 c0 -5 5 -7 10 -4 6 3 10 8 10 11 0 2 -4 4 -10 4 -5 0 -10
-5 -10 -11z"/>
<path d="M1700 2117 c0 -10 5 -17 11 -17 6 0 9 -6 6 -13 -3 -9 9 -12 48 -10
44 2 54 -1 58 -16 4 -18 1 -19 -90 -25 -11 0 -19 -4 -17 -8 3 -4 -21 -6 -53
-4 -31 2 -69 -1 -85 -6 -36 -13 -61 -4 -28 10 14 6 34 13 45 17 20 6 20 7 1
21 -14 10 -22 11 -27 3 -4 -6 -19 -11 -34 -11 -18 0 -29 -7 -32 -19 -3 -10
-11 -15 -19 -12 -15 6 -10 -20 9 -45 7 -9 5 -17 -8 -26 -36 -26 5 -27 49 -1
26 15 65 28 93 30 26 2 62 8 80 14 17 5 34 7 36 4 3 -2 18 2 35 11 22 11 32
12 41 3 6 -6 11 -8 11 -4 0 4 14 0 30 -8 17 -9 28 -20 25 -25 -4 -6 1 -10 9
-10 9 0 16 -4 16 -10 0 -12 37 -50 49 -50 5 0 11 -9 14 -21 4 -14 10 -18 19
-13 10 6 10 4 -1 -9 -17 -22 -7 -34 14 -17 22 18 20 24 -27 81 -67 80 -149
158 -191 180 -37 19 -67 18 -37 -1 13 -8 13 -10 1 -10 -8 0 -23 7 -33 17 -17
15 -18 15 -18 0z m-155 -127 c-3 -5 -14 -10 -23 -10 -15 0 -15 2 -2 10 20 13
33 13 25 0z"/>
<path d="M2146 2110 c12 -14 24 -32 27 -40 5 -13 6 -13 6 1 1 8 -11 26 -26 40
l-28 24 21 -25z"/>
<path d="M2206 2113 c-6 -14 -5 -15 5 -6 7 7 10 15 7 18 -3 3 -9 -2 -12 -12z"/>
<path d="M2272 2114 c-7 -8 -8 -14 -3 -14 10 0 25 19 20 25 -2 1 -10 -3 -17
-11z"/>
<path d="M2230 2110 c0 -5 5 -10 11 -10 5 0 7 5 4 10 -3 6 -8 10 -11 10 -2 0
-4 -4 -4 -10z"/>
<path d="M763 2082 c-24 -15 -43 -30 -43 -34 0 -14 27 -8 40 7 11 13 15 13 22
3 6 -10 10 -7 14 10 4 12 10 22 15 22 5 0 9 5 9 10 0 15 -11 12 -57 -18z"/>
<path d="M2015 2090 c-3 -5 -1 -10 4 -10 6 0 11 5 11 10 0 6 -2 10 -4 10 -3 0
-8 -4 -11 -10z"/>
<path d="M2191 2068 c-1 -15 4 -39 11 -55 11 -27 12 -27 15 -5 3 12 12 22 21
22 10 0 22 10 27 23 6 12 17 21 24 19 7 -1 10 2 6 8 -8 13 -45 -10 -45 -28 0
-7 -5 -10 -11 -7 -6 4 -8 13 -5 21 3 7 1 16 -4 19 -6 4 -10 -6 -10 -22 l-1
-28 -14 30 -13 30 -1 -27z"/>
<path d="M829 2078 c-1 -2 -3 -13 -4 -25 -3 -31 12 -29 17 2 3 14 1 25 -3 25
-5 0 -10 -1 -10 -2z"/>
<path d="M947 2069 c-21 -12 -14 -29 13 -29 10 0 20 -7 24 -15 7 -19 5 -19
-39 2 -32 15 -38 15 -68 1 -26 -12 -45 -14 -97 -7 -60 9 -66 8 -87 -13 -12
-13 -24 -40 -27 -62 -3 -21 -12 -47 -22 -57 -11 -12 -13 -19 -5 -19 9 0 9 -5
1 -20 -9 -16 -8 -20 5 -20 9 0 15 9 15 25 0 14 5 25 10 25 6 0 10 7 10 15 0 7
7 18 16 23 9 5 15 11 14 13 -4 11 13 38 22 33 5 -3 8 2 6 12 -3 18 6 19 112
19 125 0 207 -20 273 -67 l32 -23 -50 -7 c-27 -3 -70 -5 -95 -3 l-45 4 38 -10
c49 -14 167 -3 167 16 0 7 -11 20 -25 29 -23 15 -35 46 -17 46 4 1 21 12 37
26 19 16 22 22 9 15 -12 -6 -24 -8 -27 -4 -4 3 -27 5 -52 5 -32 -1 -45 3 -45
12 0 9 -7 12 -20 9 -12 -3 -20 0 -20 6 0 7 5 9 10 6 6 -3 10 -2 10 4 0 6 -15
7 -37 4 -26 -4 -34 -3 -29 5 9 14 6 14 -17 1z m83 -49 c0 -5 -4 -10 -9 -10 -6
0 -13 5 -16 10 -3 6 1 10 9 10 9 0 16 -4 16 -10z"/>
<path d="M2096 2064 c-4 -9 -4 -19 -1 -22 2 -3 7 3 11 12 4 9 4 19 1 22 -2 3
-7 -3 -11 -12z"/>
<path d="M666 2055 c-3 -9 0 -15 9 -15 16 0 20 16 6 24 -5 3 -11 -1 -15 -9z"/>
<path d="M855 2060 c-3 -5 1 -10 9 -10 9 0 16 5 16 10 0 6 -4 10 -9 10 -6 0
-13 -4 -16 -10z"/>
<path d="M1625 2060 c-3 -5 -1 -10 4 -10 6 0 11 5 11 10 0 6 -2 10 -4 10 -3 0
-8 -4 -11 -10z"/>
<path d="M1666 2063 c-11 -11 -6 -23 9 -23 8 0 15 4 15 9 0 13 -16 22 -24 14z"/>
<path d="M2020 2050 c0 -5 7 -10 16 -10 8 0 12 5 9 10 -3 6 -10 10 -16 10 -5
0 -9 -4 -9 -10z"/>
<path d="M2278 2043 c-4 -15 0 -19 16 -18 13 1 22 9 23 21 3 18 2 18 -5 -1 -8
-18 -9 -18 -19 -1 -10 17 -10 17 -15 -1z"/>
<path d="M1290 2032 c14 -5 55 -23 93 -41 44 -22 73 -30 85 -25 15 6 15 8 -3
12 -11 2 -22 7 -25 11 -9 11 -104 43 -140 47 -28 2 -30 2 -10 -4z"/>
<path d="M2080 2022 c0 -4 9 -13 19 -19 16 -10 18 -9 14 8 -5 18 -33 28 -33
11z"/>
<path d="M1790 1999 c0 -5 5 -7 10 -4 6 3 10 8 10 11 0 2 -4 4 -10 4 -5 0 -10
-5 -10 -11z"/>
<path d="M1975 1994 c9 -9 19 -13 23 -10 3 4 0 11 -8 16 -24 15 -33 11 -15 -6z"/>
<path d="M2228 1993 c-3 -10 1 -47 8 -83 17 -84 32 -240 23 -234 -4 2 -7 -9
-7 -26 1 -17 -4 -36 -9 -41 -7 -7 -8 -22 -3 -40 5 -18 5 -27 -1 -24 -14 9 -11
-40 5 -71 8 -15 13 -32 9 -36 -3 -5 -5 -26 -5 -46 0 -20 -4 -42 -10 -49 -5 -7
-7 -21 -3 -32 3 -11 3 -36 0 -55 -10 -52 -35 -36 -35 22 0 53 -8 53 -12 -1 -1
-20 -7 -37 -12 -37 -6 0 0 -7 12 -16 12 -8 22 -22 22 -30 0 -24 19 -16 26 11
3 14 10 22 16 19 5 -3 12 3 15 15 6 24 23 27 42 9 11 -11 13 -10 9 2 -3 8 -19
16 -36 18 -28 3 -31 6 -26 26 3 12 6 30 8 41 4 25 43 55 63 48 10 -4 14 -2 10
4 -4 6 2 8 16 6 37 -7 57 16 48 57 l-8 35 -13 -27 c-14 -29 -37 -40 -26 -12 3
8 2 13 -3 9 -5 -3 -12 1 -14 7 -4 10 -6 10 -6 1 -1 -7 -8 -10 -16 -7 -8 4 -15
1 -15 -5 0 -6 9 -11 20 -11 11 0 20 -4 20 -9 0 -12 -8 -16 -41 -24 l-25 -6 -2
91 c-1 75 8 139 31 233 1 6 6 16 11 23 4 7 5 16 2 19 -3 4 -6 1 -6 -7 0 -10
-3 -10 -15 0 -9 7 -14 19 -11 26 3 7 0 15 -7 18 -9 3 -9 5 1 5 6 1 12 8 12 17
0 8 -4 13 -8 10 -4 -3 -7 8 -6 25 1 16 -1 27 -6 24 -4 -2 -7 13 -6 35 1 43 5
47 24 28 8 -8 12 -8 12 -1 0 13 -23 23 -51 23 -17 0 -18 3 -9 20 6 11 7 20 2
20 -6 0 -12 -8 -14 -17z m26 -73 c-5 -5 -10 3 -11 18 -1 22 0 24 9 8 6 -10 6
-22 2 -26z"/>
<path d="M2026 1984 c-3 -9 -4 -20 0 -25 3 -5 -3 -9 -13 -10 -14 0 -15 -2 -3
-6 8 -3 18 -11 22 -17 4 -6 8 8 8 32 0 44 -4 52 -14 26z"/>
<path d="M2150 1990 c0 -5 5 -10 11 -10 5 0 7 5 4 10 -3 6 -8 10 -11 10 -2 0
-4 -4 -4 -10z"/>
<path d="M2280 1990 c0 -5 5 -10 11 -10 5 0 7 5 4 10 -3 6 -8 10 -11 10 -2 0
-4 -4 -4 -10z"/>
<path d="M2081 1966 c-7 -8 -8 -17 -3 -20 6 -3 12 3 15 14 6 24 4 25 -12 6z"/>
<path d="M2160 1951 c0 -5 12 -8 26 -8 18 0 22 2 13 8 -18 11 -39 11 -39 0z"/>
<path d="M1360 1943 c0 -13 36 -32 62 -33 15 0 30 -4 33 -10 3 -5 -1 -10 -9
-10 -9 0 -16 -7 -16 -15 0 -21 -16 -19 -33 6 -8 11 -18 16 -21 11 -3 -6 1 -13
10 -16 10 -4 14 -14 12 -24 -6 -23 17 -56 31 -47 6 3 11 2 11 -3 0 -5 9 -19
19 -31 11 -12 26 -32 35 -44 16 -22 16 -22 9 7 -3 17 -19 41 -35 54 -28 24
-36 42 -18 42 5 0 34 -24 64 -54 30 -29 57 -52 59 -49 2 2 25 -6 51 -17 26
-11 55 -20 64 -20 29 0 -1 17 -59 34 -41 11 -65 26 -92 56 -20 22 -53 48 -73
56 l-37 16 24 22 c14 13 31 26 39 29 11 4 9 6 -5 6 -11 1 -30 8 -41 16 -12 8
-24 12 -26 9 -3 -2 -17 0 -32 5 -14 6 -26 8 -26 4z"/>
<path d="M2055 1920 c3 -5 8 -10 11 -10 2 0 4 5 4 10 0 6 -5 10 -11 10 -5 0
-7 -4 -4 -10z"/>
<path d="M2116 1922 c-2 -4 4 -9 15 -9 11 -1 17 2 14 8 -7 11 -22 12 -29 1z"/>
<path d="M2163 1908 c0 -13 1 -17 4 -10 4 10 8 10 21 0 12 -9 11 -6 -2 10 -11
12 -20 22 -20 22 -1 0 -2 -10 -3 -22z"/>
<path d="M2286 1923 c-9 -10 -7 -25 3 -19 5 4 11 0 14 -6 2 -7 8 -10 12 -6 4
4 1 14 -8 22 -8 8 -17 12 -21 9z"/>
<path d="M1580 1899 c0 -5 5 -7 10 -4 6 3 10 8 10 11 0 2 -4 4 -10 4 -5 0 -10
-5 -10 -11z"/>
<path d="M1688 1903 c7 -3 16 -2 19 1 4 3 -2 6 -13 5 -11 0 -14 -3 -6 -6z"/>
<path d="M883 1893 c15 -2 39 -2 55 0 15 2 2 4 -28 4 -30 0 -43 -2 -27 -4z"/>
<path d="M2070 1890 c0 -5 5 -10 11 -10 5 0 7 5 4 10 -3 6 -8 10 -11 10 -2 0
-4 -4 -4 -10z"/>
<path d="M2332 1885 c-11 -12 -10 -15 3 -15 8 0 15 7 15 15 0 18 -2 18 -18 0z"/>
<path d="M788 1870 c-20 -11 -40 -25 -44 -32 -4 -6 8 -3 27 8 19 11 45 25 59
32 14 6 18 11 10 11 -8 0 -32 -9 -52 -19z"/>
<path d="M1540 1881 c0 -9 -9 -12 -30 -9 -16 3 -30 1 -30 -4 0 -9 33 -17 70
-16 14 0 50 -3 80 -6 30 -4 76 -9 102 -10 80 -6 138 -17 138 -27 0 -6 4 -8 9
-4 6 3 15 -4 21 -15 6 -11 20 -20 30 -20 11 0 20 -4 20 -10 0 -5 5 -10 10 -10
19 0 10 15 -20 32 -17 9 -30 23 -30 31 0 8 -9 22 -20 32 -17 16 -44 19 -178
23 -100 3 -160 9 -164 16 -5 7 -8 7 -8 -3z"/>
<path d="M970 1859 c-111 -7 -194 -25 -215 -45 -8 -9 -19 -13 -24 -10 -5 3 -7
-3 -4 -14 6 -24 11 -25 32 -7 13 11 68 27 151 44 8 1 42 4 75 7 73 5 125 16
125 26 0 8 -3 8 -140 -1z"/>
<path d="M1355 1860 c-3 -5 -1 -10 4 -10 6 0 11 5 11 10 0 6 -2 10 -4 10 -3 0
-8 -4 -11 -10z"/>
<path d="M2070 1860 c-12 -8 -11 -10 8 -10 12 0 22 5 22 10 0 13 -11 13 -30 0z"/>
<path d="M2310 1839 c0 -11 4 -18 10 -14 5 3 7 12 3 20 -7 21 -13 19 -13 -6z"/>
<path d="M1935 1837 c10 -8 15 -19 11 -25 -7 -12 -3 -13 59 -17 39 -2 48 3 33
19 -10 11 -15 10 -26 -1 -11 -10 -17 -11 -28 -2 -8 6 -14 8 -14 3 0 -5 -7 2
-16 14 -8 12 -20 22 -26 22 -7 0 -4 -6 7 -13z"/>
<path d="M2222 1825 c0 -16 2 -22 5 -12 2 9 2 23 0 30 -3 6 -5 -1 -5 -18z"/>
<path d="M1297 1816 c-4 -10 -1 -13 8 -9 8 3 12 9 9 14 -7 12 -11 11 -17 -5z"/>
<path d="M2087 1823 c-10 -9 -9 -23 1 -23 5 0 9 7 9 15 0 17 -1 18 -10 8z"/>
<path d="M2350 1821 c0 -5 5 -13 10 -16 6 -3 10 -2 10 4 0 5 -4 13 -10 16 -5
3 -10 2 -10 -4z"/>
<path d="M635 1810 c-3 -5 -1 -10 4 -10 6 0 11 5 11 10 0 6 -2 10 -4 10 -3 0
-8 -4 -11 -10z"/>
<path d="M1115 1811 c-3 -6 -11 -9 -16 -5 -6 3 -19 -2 -30 -12 -10 -9 -19 -13
-19 -9 0 5 -6 2 -12 -7 -7 -8 -41 -25 -75 -38 -35 -12 -63 -26 -63 -31 0 -7
40 2 85 21 11 5 35 14 53 22 17 7 32 19 32 25 0 7 8 13 18 13 22 0 48 17 40
25 -3 4 -9 1 -13 -4z"/>
<path d="M2150 1795 c-7 -9 -8 -15 -2 -15 5 0 12 7 16 15 3 8 4 15 2 15 -2 0
-9 -7 -16 -15z"/>
<path d="M2305 1799 c-4 -6 -5 -12 -2 -15 2 -3 7 2 10 11 7 17 1 20 -8 4z"/>
<path d="M685 1765 c-25 -12 -26 -14 -5 -9 14 4 29 10 35 15 12 12 5 11 -30
-6z"/>
<path d="M1840 1771 c0 -5 6 -14 14 -20 12 -10 13 -8 9 8 -5 21 -23 30 -23 12z"/>
<path d="M2201 1753 c-10 -26 -10 -27 4 -9 8 11 15 23 15 28 0 15 -7 8 -19
-19z"/>
<path d="M1087 1763 c-4 -3 -7 -11 -7 -17 0 -6 5 -5 12 2 6 6 9 14 7 17 -3 3
-9 2 -12 -2z"/>
<path d="M1180 1755 c-9 -10 -9 -15 -1 -15 6 0 11 5 11 11 0 5 5 7 12 3 7 -4
8 -3 4 4 -9 15 -11 15 -26 -3z"/>
<path d="M700 1739 c-27 -15 -29 -18 -10 -13 14 3 32 12 40 20 19 19 12 17
-30 -7z"/>
<path d="M1790 1750 c-12 -8 -11 -10 8 -10 12 0 22 5 22 10 0 13 -11 13 -30 0z"/>
<path d="M610 1738 c0 -4 4 -8 9 -8 6 0 12 4 15 8 3 5 -1 9 -9 9 -8 0 -15 -4
-15 -9z"/>
<path d="M1911 1718 c12 -16 24 -27 27 -24 2 3 0 12 -6 19 -7 8 -9 16 -7 19 3
3 -3 8 -15 11 -20 5 -20 5 1 -25z"/>
<path d="M1990 1740 c0 -5 5 -10 10 -10 6 0 10 5 10 10 0 6 -4 10 -10 10 -5 0
-10 -4 -10 -10z"/>
<path d="M1317 1734 c-3 -4 0 -13 8 -20 8 -8 12 -21 9 -28 -3 -7 2 -16 10 -19
9 -4 12 -13 9 -28 -4 -15 -3 -20 6 -15 6 4 9 12 6 17 -13 20 5 7 48 -34 24
-24 47 -50 50 -58 4 -10 6 -11 6 -1 1 8 6 10 14 6 10 -6 10 -4 0 7 -14 15 -17
49 -5 49 14 0 52 -76 52 -104 0 -15 11 -39 25 -54 14 -15 25 -32 25 -39 0 -7
4 -13 8 -13 4 0 14 -17 21 -37 8 -21 23 -49 34 -63 l19 -25 -7 25 c-4 14 -13
28 -19 32 -6 4 -7 10 -4 13 4 4 -3 23 -15 43 -41 72 -57 106 -57 123 0 9 -20
46 -45 82 -25 37 -45 71 -45 77 0 5 -4 10 -10 10 -12 0 -12 -2 0 -35 7 -17 7
-24 0 -20 -6 3 -10 1 -10 -4 0 -6 -7 -11 -15 -11 -8 0 -15 7 -15 16 0 10 6 14
15 10 8 -3 15 -2 15 3 0 5 -11 11 -25 13 -13 3 -22 1 -19 -3 3 -5 1 -9 -5 -9
-16 0 -51 51 -51 76 0 22 -19 32 -33 18z"/>
<path d="M2425 1730 c-3 -5 4 -19 16 -31 18 -18 20 -28 15 -63 -15 -92 -19
-219 -7 -212 6 4 11 29 11 57 0 27 3 49 8 49 4 0 8 36 10 81 3 61 0 86 -12
105 -17 25 -31 30 -41 14z"/>
<path d="M527 1723 c-3 -5 -1 -17 4 -28 7 -17 8 -17 8 8 1 27 -4 34 -12 20z"/>
<path d="M730 1719 c0 -5 5 -7 10 -4 6 3 10 8 10 11 0 2 -4 4 -10 4 -5 0 -10
-5 -10 -11z"/>
<path d="M1820 1715 c7 -9 15 -13 17 -11 7 7 -7 26 -19 26 -6 0 -6 -6 2 -15z"/>
<path d="M1025 1713 c-21 -6 -44 -31 -44 -48 0 -5 6 -2 13 8 7 9 18 17 23 17
6 0 16 7 23 15 7 8 11 14 9 14 -2 -1 -13 -4 -24 -6z"/>
<path d="M2070 1710 c8 -5 20 -10 25 -10 6 0 3 5 -5 10 -8 5 -19 10 -25 10 -5
0 -3 -5 5 -10z"/>
<path d="M1075 1699 c-11 -16 -1 -19 13 -3 7 8 8 14 3 14 -5 0 -13 -5 -16 -11z"/>
<path d="M1200 1700 c0 -5 7 -10 15 -10 8 0 15 5 15 10 0 6 -7 10 -15 10 -8 0
-15 -4 -15 -10z"/>
<path d="M1745 1700 c-3 -5 -1 -10 4 -10 6 0 11 5 11 10 0 6 -2 10 -4 10 -3 0
-8 -4 -11 -10z"/>
<path d="M1885 1700 c3 -5 8 -10 11 -10 2 0 4 5 4 10 0 6 -5 10 -11 10 -5 0
-7 -4 -4 -10z"/>
<path d="M2357 1685 c-15 -14 -27 -29 -27 -32 0 -4 14 6 30 22 28 26 34 35 27
35 -1 0 -15 -11 -30 -25z"/>
<path d="M1160 1683 c-19 -7 -49 -44 -50 -61 0 -20 20 -4 30 24 5 13 16 24 25
24 8 0 15 5 15 10 0 6 -1 10 -2 9 -2 0 -10 -3 -18 -6z"/>
<path d="M2150 1676 c0 -9 5 -16 10 -16 6 0 10 4 10 9 0 6 -4 13 -10 16 -5 3
-10 -1 -10 -9z"/>
<path d="M1830 1664 c0 -8 5 -12 10 -9 6 4 8 11 5 16 -9 14 -15 11 -15 -7z"/>
<path d="M1972 1660 c0 -14 2 -19 5 -12 2 6 2 18 0 25 -3 6 -5 1 -5 -13z"/>
<path d="M2418 1643 c5 -59 10 -63 11 -10 1 26 -3 47 -7 47 -4 0 -6 -17 -4
-37z"/>
<path d="M522 1593 c5 -43 13 -82 18 -87 6 -6 10 -27 10 -48 0 -70 16 -39 17
35 2 52 0 66 -7 50 -14 -33 -20 -28 -20 15 0 28 3 34 11 22 8 -12 9 -11 6 5
-2 11 -10 19 -18 17 -10 -3 -11 0 -3 8 14 14 6 60 -10 60 -9 0 -10 -19 -4 -77z"/>
<path d="M2115 1650 c3 -5 8 -10 11 -10 2 0 4 5 4 10 0 6 -5 10 -11 10 -5 0
-7 -4 -4 -10z"/>
<path d="M840 1634 c0 -8 5 -12 10 -9 6 4 8 11 5 16 -9 14 -15 11 -15 -7z"/>
<path d="M2081 1634 c0 -11 3 -14 6 -6 3 7 2 16 -1 19 -3 4 -6 -2 -5 -13z"/>
<path d="M2155 1639 c-4 -6 -5 -12 -2 -15 2 -3 7 2 10 11 7 17 1 20 -8 4z"/>
<path d="M2210 1636 c0 -11 -5 -16 -13 -13 -7 3 -13 -3 -13 -14 0 -32 23 -29
30 3 3 17 4 33 1 36 -3 3 -5 -3 -5 -12z"/>
<path d="M795 1630 c-16 -7 -17 -9 -3 -9 9 -1 20 4 23 9 7 11 7 11 -20 0z"/>
<path d="M1081 1624 c0 -12 -7 -27 -15 -33 -16 -14 -39 -71 -28 -71 14 0 33
17 30 26 -1 5 3 19 11 32 7 13 10 33 8 45 -4 22 -4 22 -6 1z"/>
<path d="M1891 1624 c0 -11 3 -14 6 -6 3 7 2 16 -1 19 -3 4 -6 -2 -5 -13z"/>
<path d="M2320 1625 c0 -8 62 -37 68 -31 8 9 -30 35 -50 36 -10 0 -18 -2 -18
-5z"/>
<path d="M2120 1610 c0 -5 5 -10 11 -10 5 0 7 5 4 10 -3 6 -8 10 -11 10 -2 0
-4 -4 -4 -10z"/>
<path d="M2297 1543 c7 -67 7 -68 29 -59 13 5 14 9 4 21 -10 13 -10 19 4 34
17 18 17 20 -3 40 -33 33 -40 26 -34 -36z"/>
<path d="M2120 1568 c0 -9 5 -20 11 -23 17 -11 20 0 4 21 -13 17 -14 17 -15 2z"/>
<path d="M2408 1573 c7 -3 16 -2 19 1 4 3 -2 6 -13 5 -11 0 -14 -3 -6 -6z"/>
<path d="M2180 1560 c0 -5 5 -10 10 -10 6 0 10 5 10 10 0 6 -4 10 -10 10 -5 0
-10 -4 -10 -10z"/>
<path d="M2130 1509 c-7 -11 -9 -23 -6 -26 7 -7 36 22 36 36 0 18 -19 12 -30
-10z"/>
<path d="M1390 1503 c-28 -10 -60 -47 -60 -69 0 -18 7 -23 38 -27 20 -2 41 -1
45 3 4 4 -6 7 -24 8 -17 0 -33 3 -36 6 -12 12 21 36 56 41 42 7 81 25 81 37 0
9 -76 10 -100 1z"/>
<path d="M1067 1493 c-14 -13 -6 -23 18 -23 16 0 40 -15 65 -40 52 -52 53 -25
2 30 -36 37 -69 50 -85 33z"/>
<path d="M2070 1491 c0 -5 7 -11 14 -14 10 -4 13 -1 9 9 -6 15 -23 19 -23 5z"/>
<path d="M2144 1475 c-4 -9 0 -24 10 -33 15 -15 16 -14 16 10 0 32 -17 46 -26
23z"/>
<path d="M1022 1454 c-1 -13 0 -24 2 -24 7 0 14 40 7 44 -4 3 -8 -6 -9 -20z"/>
<path d="M1481 1450 c-36 -20 -61 -50 -41 -50 5 0 10 4 10 8 0 5 16 16 35 25
19 9 35 21 35 27 0 12 2 13 -39 -10z"/>
<path d="M1260 1449 c0 -5 5 -7 10 -4 6 3 10 8 10 11 0 2 -4 4 -10 4 -5 0 -10
-5 -10 -11z"/>
<path d="M761 1424 c0 -11 3 -14 6 -6 3 7 2 16 -1 19 -3 4 -6 -2 -5 -13z"/>
<path d="M1087 1422 c6 -25 20 -37 52 -45 13 -3 20 -3 15 1 -5 4 -23 20 -41
36 -28 25 -31 26 -26 8z"/>
<path d="M1035 1420 c-3 -5 -1 -10 4 -10 6 0 11 5 11 10 0 6 -2 10 -4 10 -3 0
-8 -4 -11 -10z"/>
<path d="M2180 1408 c-1 -23 -1 -23 -16 -3 -15 19 -15 19 -8 -9 4 -18 2 -31
-6 -36 -7 -4 -9 -13 -6 -19 11 -16 26 -13 20 4 -4 9 0 15 10 15 12 0 16 10 16
35 0 19 -2 35 -5 35 -3 0 -5 -10 -5 -22z"/>
<path d="M2218 1403 c3 -18 1 -24 -7 -19 -6 4 -11 3 -11 -3 0 -5 5 -13 10 -16
6 -3 10 0 10 7 0 11 2 10 9 0 5 -9 8 -3 7 17 -1 17 -6 33 -12 35 -7 3 -9 -5
-6 -21z"/>
<path d="M2421 1415 c2 -5 -2 -20 -9 -32 -10 -19 -10 -22 2 -17 20 8 29 35 16
48 -7 6 -10 7 -9 1z"/>
<path d="M1265 1400 c28 -12 57 -12 50 0 -3 6 -21 10 -38 9 -27 0 -29 -2 -12
-9z"/>
<path d="M562 1345 c0 -16 2 -22 5 -12 2 9 2 23 0 30 -3 6 -5 -1 -5 -18z"/>
<path d="M1180 1360 c-13 -8 -12 -10 3 -10 9 0 17 5 17 10 0 12 -1 12 -20 0z"/>
<path d="M1420 1352 c0 -17 23 -32 55 -36 6 -1 14 -7 18 -14 7 -10 12 -10 23
-1 11 9 14 8 14 -5 0 -13 5 -16 20 -11 15 5 31 -7 70 -47 27 -29 53 -62 56
-73 4 -11 12 -23 18 -27 6 -4 10 -25 10 -48 -1 -27 3 -40 12 -40 8 0 11 11 9
34 -4 47 -35 137 -44 131 -10 -6 -91 70 -91 86 0 6 -6 9 -14 6 -8 -3 -16 0
-19 6 -2 7 -22 18 -43 26 -22 8 -42 19 -46 25 -5 8 -8 7 -8 -2 0 -10 -5 -10
-20 -2 -17 9 -20 8 -20 -8z"/>
<path d="M2360 1365 c-6 -21 -6 -75 -1 -75 4 0 12 9 19 20 7 11 8 20 3 20 -5
0 -12 10 -14 23 -2 12 -5 18 -7 12z"/>
<path d="M2185 1350 c-7 -12 27 -22 37 -12 6 6 1 12 -11 15 -12 3 -23 2 -26
-3z"/>
<path d="M1001 1329 c-1 -4 -8 -23 -16 -43 -8 -20 -13 -36 -10 -36 9 0 36 62
31 73 -2 7 -5 9 -5 6z"/>
<path d="M1137 1310 c5 -17 0 -20 -26 -20 -20 0 -31 -5 -31 -14 0 -7 -10 -16
-22 -19 -12 -4 -19 -9 -16 -12 3 -4 15 -2 26 4 11 6 27 8 35 5 8 -3 27 6 42
20 23 21 26 28 15 41 -18 21 -29 19 -23 -5z"/>
<path d="M2137 1319 c7 -7 15 -10 18 -7 3 3 -2 9 -12 12 -14 6 -15 5 -6 -5z"/>
<path d="M2031 1304 c0 -11 3 -14 6 -6 3 7 2 16 -1 19 -3 4 -6 -2 -5 -13z"/>
<path d="M2110 1311 c0 -6 5 -13 10 -16 6 -3 10 -15 10 -25 0 -26 15 -34 17
-9 1 11 -7 29 -18 40 -10 10 -19 15 -19 10z"/>
<path d="M2301 1304 c0 -11 3 -14 6 -6 3 7 2 16 -1 19 -3 4 -6 -2 -5 -13z"/>
<path d="M576 1295 c-3 -9 -6 -24 -5 -33 0 -9 5 -4 10 12 9 32 6 48 -5 21z"/>
<path d="M1360 1300 c-13 -8 -12 -10 3 -10 9 0 17 5 17 10 0 12 -1 12 -20 0z"/>
<path d="M1251 1288 c-36 -13 -23 -26 22 -21 23 3 46 9 50 13 12 11 -47 18
-72 8z"/>
<path d="M2213 1272 c1 -14 5 -18 11 -12 7 7 6 14 -1 21 -9 9 -12 7 -10 -9z"/>
<path d="M2330 1277 c0 -10 8 -17 18 -17 9 0 13 4 7 8 -5 4 -13 11 -17 16 -5
5 -8 2 -8 -7z"/>
<path d="M1660 1261 c0 -6 5 -13 10 -16 6 -3 10 1 10 9 0 9 -4 16 -10 16 -5 0
-10 -4 -10 -9z"/>
<path d="M2070 1223 c0 -24 2 -43 4 -43 8 0 12 60 4 72 -4 8 -8 -4 -8 -29z"/>
<path d="M1356 1218 c-9 -12 -16 -18 -16 -13 0 5 -5 4 -12 -3 -18 -18 -68 -15
-68 3 0 16 -12 20 -24 8 -8 -8 -13 -10 -46 -12 -11 0 -20 -5 -20 -11 0 -5 9
-10 20 -10 11 0 20 4 20 8 0 4 9 8 20 9 31 3 24 -6 -19 -23 -22 -8 -42 -23
-46 -32 -5 -14 -7 -14 -16 -2 -8 11 -9 10 -4 -7 5 -16 2 -23 -8 -23 -8 0 -18
-11 -21 -25 -4 -14 -11 -25 -16 -25 -6 0 -10 -4 -10 -10 0 -31 73 31 90 76 11
27 46 44 92 44 16 0 60 7 97 16 60 14 69 14 104 0 37 -16 50 -36 22 -36 -8 0
-15 -6 -15 -12 0 -7 -3 -24 -6 -38 -4 -19 -2 -17 10 8 18 38 51 44 62 10 4
-13 15 -29 25 -36 11 -7 19 -19 19 -27 0 -20 -20 -29 -33 -16 -8 8 -15 7 -27
-4 -17 -15 -50 -11 -50 5 0 10 -81 0 -96 -12 -7 -5 -28 -3 -53 6 -23 7 -43 10
-46 6 -9 -15 -88 -21 -97 -8 -6 11 -10 10 -17 -1 -6 -9 -18 -11 -35 -7 -26 6
-37 -8 -13 -17 9 -3 9 -8 -2 -18 -12 -12 -13 -12 -7 1 4 8 0 6 -8 -4 -18 -22
-19 -33 -10 -99 4 -26 11 -44 16 -41 5 3 14 -8 21 -25 6 -17 17 -31 23 -31 28
0 65 -117 43 -131 -16 -10 -57 13 -64 36 -4 11 -17 60 -29 110 -21 81 -23 87
-29 56 -5 -24 1 -55 22 -114 39 -109 100 -246 122 -279 11 -14 19 -32 19 -38
0 -10 3 -10 14 -1 16 13 56 -1 56 -19 0 -6 7 -10 15 -10 8 0 15 4 15 10 0 5 7
7 15 4 17 -7 20 22 5 46 -8 13 -10 13 -10 -2 0 -43 -89 -13 -122 41 -46 75
-56 106 -44 130 7 12 15 18 19 15 4 -4 7 -2 7 5 0 7 4 10 9 7 14 -9 1 -46 -16
-46 -8 0 -12 -4 -8 -10 3 -5 12 -7 19 -4 9 3 15 -4 18 -20 3 -14 1 -26 -3 -26
-13 0 0 -26 14 -29 7 -1 50 -5 97 -8 69 -4 86 -2 96 11 12 17 44 12 44 -6 0
-18 -21 -48 -33 -48 -13 -1 -57 -35 -57 -45 0 -13 41 7 69 33 28 27 81 110 81
128 0 5 -4 3 -9 -4 -7 -11 -11 -11 -24 2 -19 19 -31 21 -24 3 3 -7 -3 -14 -12
-15 -9 -1 -25 -3 -36 -4 -11 -2 -25 -11 -31 -21 -10 -18 -12 -17 -27 6 -9 14
-25 28 -36 32 -23 7 -18 32 7 38 13 4 13 5 -3 6 -11 0 -26 -9 -34 -20 -12 -20
-10 -24 16 -45 22 -18 26 -25 16 -35 -10 -10 -13 -10 -13 -1 0 7 -6 12 -12 11
-27 -3 -38 2 -38 17 0 8 -4 12 -10 9 -9 -5 -15 15 -11 37 0 5 -3 8 -9 8 -5 0
-8 12 -6 28 1 15 -1 36 -5 47 -8 20 -8 20 -8 0 -1 -16 -3 -17 -10 -6 -6 9 -4
19 4 27 7 8 15 18 17 24 2 6 19 2 43 -10 21 -11 51 -20 66 -20 15 0 34 -7 43
-15 8 -8 21 -15 28 -15 10 0 10 2 1 8 -7 5 16 15 58 26 39 10 73 16 76 13 2
-3 -4 -14 -15 -25 -15 -15 -30 -20 -56 -16 -20 2 -38 -1 -42 -7 -5 -8 11 -10
55 -7 66 5 78 -7 44 -44 -9 -10 -11 -18 -6 -18 21 0 35 30 30 59 -5 23 3 46
36 102 39 67 42 79 42 144 0 61 -5 80 -40 150 -21 44 -46 85 -54 91 -9 7 -29
24 -44 38 -15 14 -36 26 -45 27 -10 0 -12 3 -4 6 21 8 13 18 -18 19 -16 1 -27
-2 -25 -6 3 -5 -2 -11 -11 -14 -22 -8 -26 -8 -19 3 12 21 -15 20 -29 -1z m-29
-211 c-1 -7 12 -12 35 -12 20 0 40 -3 44 -7 16 -16 26 -7 11 10 -15 16 -13 17
21 16 20 -1 40 -2 45 -4 8 -3 23 -7 35 -9 4 -1 0 -5 -8 -11 -8 -5 -11 -12 -8
-16 4 -3 14 0 22 9 8 8 12 17 9 21 -4 3 10 6 30 6 26 0 39 -6 47 -19 14 -27
12 -71 -4 -103 -16 -30 -9 -36 13 -15 12 10 13 8 6 -8 -4 -11 -10 -28 -12 -37
-3 -10 -9 -18 -14 -18 -5 0 -9 -6 -9 -13 0 -18 -46 -60 -68 -62 -9 0 -22 -3
-27 -6 -6 -3 -19 -9 -30 -12 -15 -5 -12 0 9 17 16 13 42 27 57 30 19 4 29 11
28 23 0 11 -3 13 -6 6 -2 -7 -12 -13 -20 -13 -11 0 -13 3 -5 13 13 15 -1 42
-17 33 -6 -4 -9 -11 -6 -16 7 -12 -47 -67 -75 -76 -41 -13 -50 -13 -50 -1 0 8
-4 7 -9 -2 -6 -10 -19 -12 -47 -7 -24 5 -33 10 -25 16 9 5 10 10 2 14 -6 4
-15 5 -20 1 -5 -3 -21 9 -36 27 l-27 33 5 -37 c3 -21 4 -38 2 -38 -3 0 -14 18
-25 39 -23 47 -64 93 -73 84 -4 -3 -7 0 -7 8 0 8 6 21 12 27 7 7 11 28 10 46
-3 28 1 36 20 42 66 22 113 2 103 -43 -3 -13 -2 -23 2 -23 5 0 8 -16 9 -35 1
-34 0 -35 -19 -18 -20 17 -20 16 1 -13 34 -49 76 -74 85 -50 3 8 -2 13 -11 13
-41 0 -44 3 -41 46 2 24 0 48 -4 53 -3 6 -2 26 3 45 13 46 12 58 -4 37 -7 -10
-16 -15 -19 -11 -9 8 20 29 44 30 10 1 18 -4 16 -10z m-198 -81 c10 -12 9 -14
-5 -12 -10 2 -20 8 -22 14 -5 17 13 15 27 -2z m49 -285 c3 -8 -1 -12 -9 -9 -7
2 -15 10 -17 17 -3 8 1 12 9 9 7 -2 15 -10 17 -17z m334 -91 c-10 -29 -14 -31
-28 -13 -19 25 -17 28 10 28 16 0 22 -4 18 -15z"/>
<path d="M1460 990 c0 -5 5 -10 10 -10 6 0 10 5 10 10 0 6 -4 10 -10 10 -5 0
-10 -4 -10 -10z"/>
<path d="M1363 976 c-4 -7 -15 -16 -23 -19 -12 -4 -12 -6 2 -6 10 -1 22 8 28
19 12 22 6 28 -7 6z"/>
<path d="M1566 978 c3 -4 9 -8 15 -8 5 0 9 4 9 8 0 5 -7 9 -15 9 -8 0 -12 -4
-9 -9z"/>
<path d="M1382 959 c4 -9 -2 -29 -13 -45 -20 -31 -25 -49 -10 -39 5 3 12 1 16
-5 3 -5 2 -10 -2 -10 -5 0 -8 -16 -9 -35 0 -39 3 -41 29 -21 15 12 15 14 2 19
-15 6 -14 39 5 99 6 20 4 30 -8 40 -13 11 -15 11 -10 -3z"/>
<path d="M1420 959 c0 -5 5 -7 10 -4 6 3 10 8 10 11 0 2 -4 4 -10 4 -5 0 -10
-5 -10 -11z"/>
<path d="M1532 961 c4 -13 18 -16 19 -4 0 4 -5 9 -11 12 -7 2 -11 -2 -8 -8z"/>
<path d="M1210 950 c0 -5 5 -10 10 -10 6 0 10 5 10 10 0 6 -4 10 -10 10 -5 0
-10 -4 -10 -10z"/>
<path d="M1459 930 c-1 -19 -2 -47 -1 -62 2 -20 -3 -28 -14 -28 -8 0 -12 -5
-9 -11 4 -6 -1 -17 -11 -24 -18 -13 -18 -14 1 -9 25 6 60 63 46 77 -6 6 -2 22
10 43 23 41 24 51 5 35 -11 -9 -15 -9 -19 1 -3 7 -7 -3 -8 -22z"/>
<path d="M1590 955 c0 -5 5 -17 10 -25 5 -8 10 -10 10 -5 0 6 -5 17 -10 25 -5
8 -10 11 -10 5z"/>
<path d="M1165 940 c-3 -5 -1 -10 4 -10 6 0 11 5 11 10 0 6 -2 10 -4 10 -3 0
-8 -4 -11 -10z"/>
<path d="M1410 929 c0 -5 5 -7 10 -4 6 3 10 8 10 11 0 2 -4 4 -10 4 -5 0 -10
-5 -10 -11z"/>
<path d="M1533 911 c0 -11 5 -17 9 -15 4 3 8 -6 8 -20 0 -29 34 -54 46 -34 4
6 3 8 -3 5 -6 -4 -14 1 -18 11 -8 21 -6 28 6 25 17 -5 9 6 -20 27 -29 20 -30
20 -28 1z"/>
<path d="M1190 900 c0 -5 5 -10 10 -10 6 0 10 5 10 10 0 6 -4 10 -10 10 -5 0
-10 -4 -10 -10z"/>
<path d="M1405 890 c3 -5 8 -10 11 -10 2 0 4 5 4 10 0 6 -5 10 -11 10 -5 0 -7
-4 -4 -10z"/>
<path d="M1200 845 c0 -19 5 -35 10 -35 6 0 10 5 10 12 0 6 9 1 20 -12 11 -13
23 -21 26 -18 3 3 -8 20 -25 37 -32 32 -40 48 -19 35 7 -4 8 -3 4 4 -14 23
-26 12 -26 -23z"/>
<path d="M1312 855 c0 -16 2 -22 5 -12 2 9 2 23 0 30 -3 6 -5 -1 -5 -18z"/>
<path d="M1335 850 c3 -5 8 -10 11 -10 2 0 4 5 4 10 0 6 -5 10 -11 10 -5 0 -7
-4 -4 -10z"/>
<path d="M1181 834 c0 -11 3 -14 6 -6 3 7 2 16 -1 19 -3 4 -6 -2 -5 -13z"/>
<path d="M1556 822 c-3 -5 1 -9 9 -9 8 0 12 4 9 9 -3 4 -7 8 -9 8 -2 0 -6 -4
-9 -8z"/>
<path d="M1270 776 c0 -2 11 -6 25 -8 14 -3 25 -1 25 3 0 5 -11 9 -25 9 -14 0
-25 -2 -25 -4z"/>
<path d="M1355 760 c-3 -5 -2 -10 4 -10 5 0 13 5 16 10 3 6 2 10 -4 10 -5 0
-13 -4 -16 -10z"/>
<path d="M1587 1219 c4 -13 8 -18 11 -10 2 7 -1 18 -6 23 -8 8 -9 4 -5 -13z"/>
<path d="M1007 1193 c-9 -20 -14 -39 -12 -42 9 -8 33 33 28 46 -3 7 0 13 6 13
6 0 11 5 11 10 0 22 -17 8 -33 -27z"/>
<path d="M1275 1220 c-4 -6 6 -7 27 -3 44 8 48 13 10 13 -17 0 -34 -4 -37 -10z"/>
<path d="M1520 1216 c0 -9 7 -16 16 -16 17 0 14 22 -4 28 -7 2 -12 -3 -12 -12z"/>
<path d="M2105 1219 c4 -6 13 -8 21 -5 8 3 14 1 14 -4 0 -6 -5 -10 -11 -10 -5
0 -7 -5 -4 -10 4 -6 12 -4 22 6 14 13 14 17 2 25 -20 12 -52 11 -44 -2z"/>
<path d="M2171 1187 c-10 -19 -9 -31 2 -66 10 -26 11 -41 4 -38 -6 2 -16 18
-22 37 -14 40 -21 31 -24 -29 -1 -25 -5 -49 -8 -55 -11 -17 -9 -96 2 -96 5 0
11 26 12 58 4 102 4 103 19 91 7 -6 15 -20 17 -32 3 -20 4 -20 15 7 9 19 9 32
2 41 -6 7 -7 32 -4 59 7 51 3 57 -15 23z"/>
<path d="M601 1170 c6 -16 15 -30 19 -30 5 0 4 14 -1 30 -6 17 -15 30 -19 30
-5 0 -4 -13 1 -30z"/>
<path d="M1565 1180 c-3 -5 -1 -10 4 -10 6 0 11 5 11 10 0 6 -2 10 -4 10 -3 0
-8 -4 -11 -10z"/>
<path d="M630 1171 c0 -6 4 -13 10 -16 6 -3 7 1 4 9 -7 18 -14 21 -14 7z"/>
<path d="M1056 1163 c-6 -14 -5 -15 5 -6 7 7 10 15 7 18 -3 3 -9 -2 -12 -12z"/>
<path d="M1970 1166 c0 -9 5 -16 10 -16 6 0 10 4 10 9 0 6 -4 13 -10 16 -5 3
-10 -1 -10 -9z"/>
<path d="M2010 1173 c0 -5 9 -14 20 -21 11 -7 20 -8 20 -2 0 5 -9 14 -20 20
-11 6 -20 7 -20 3z"/>
<path d="M1393 1145 c3 -28 17 -46 17 -22 0 8 3 22 6 31 4 11 1 16 -10 16 -12
0 -16 -7 -13 -25z"/>
<path d="M1590 1150 c0 -10 5 -22 10 -25 6 -3 10 -15 10 -26 0 -10 5 -19 11
-19 8 0 9 11 5 31 -3 17 -6 35 -6 39 0 4 -7 10 -15 14 -10 3 -15 -1 -15 -14z"/>
<path d="M2091 1160 c0 -8 4 -22 9 -30 12 -18 12 -2 0 25 -6 13 -9 15 -9 5z"/>
<path d="M1270 1135 c0 -14 5 -25 10 -25 6 0 10 11 10 25 0 14 -4 25 -10 25
-5 0 -10 -11 -10 -25z"/>
<path d="M668 1115 c-24 -32 -23 -40 3 -14 11 11 19 24 17 29 -2 4 -11 -2 -20
-15z"/>
<path d="M979 1123 c-9 -49 -3 -120 9 -108 9 8 8 115 0 115 -5 0 -9 -3 -9 -7z"/>
<path d="M2060 1119 c0 -6 -7 -9 -15 -5 -8 3 -15 1 -15 -4 0 -6 9 -10 20 -10
11 0 20 7 20 15 0 8 -2 15 -5 15 -3 0 -5 -5 -5 -11z"/>
<path d="M1065 1102 c-19 -16 -27 -64 -12 -78 4 -4 7 2 7 14 0 35 0 36 16 60
17 26 16 27 -11 4z"/>
<path d="M720 1088 c0 -19 2 -20 10 -8 13 19 13 30 0 30 -5 0 -10 -10 -10 -22z"/>
<path d="M2087 1091 c-3 -11 -3 -22 0 -25 7 -7 33 20 33 33 0 19 -27 12 -33
-8z"/>
<path d="M1275 1091 c-3 -5 -1 -12 5 -16 5 -3 10 1 10 9 0 18 -6 21 -15 7z"/>
<path d="M747 1066 c-4 -10 -7 -25 -6 -34 0 -11 4 -9 10 7 5 13 8 29 6 35 -2
5 -6 2 -10 -8z"/>
<path d="M1956 1071 c-3 -5 1 -11 9 -15 8 -3 15 -12 15 -21 0 -8 5 -15 10 -15
15 0 12 16 -5 30 -8 7 -12 16 -9 21 3 5 1 9 -5 9 -5 0 -12 -4 -15 -9z"/>
<path d="M2030 1060 c0 -5 5 -10 11 -10 5 0 7 5 4 10 -3 6 -8 10 -11 10 -2 0
-4 -4 -4 -10z"/>
<path d="M678 1043 c-3 -10 1 -31 8 -48 13 -29 13 -29 7 15 -7 53 -9 57 -15
33z"/>
<path d="M1886 1051 c-4 -7 -5 -15 -2 -18 9 -9 19 4 14 18 -4 11 -6 11 -12 0z"/>
<path d="M2073 1048 c3 -10 2 -20 -3 -23 -12 -7 -13 -45 -2 -45 30 1 40 44 16
68 -17 16 -17 16 -11 0z m8 -45 c-8 -15 -10 -15 -11 -2 0 17 10 32 18 25 2 -3
-1 -13 -7 -23z"/>
<path d="M2029 1019 c-7 -11 -21 -18 -30 -16 -12 3 -15 -1 -12 -14 5 -16 8
-15 36 11 17 16 29 31 26 34 -3 3 -12 -4 -20 -15z"/>
<path d="M801 1014 c0 -11 3 -14 6 -6 3 7 2 16 -1 19 -3 4 -6 -2 -5 -13z"/>
<path d="M1706 1022 c-3 -5 -2 -22 3 -38 l8 -29 5 33 c4 31 -5 52 -16 34z"/>
<path d="M757 1003 c-4 -3 -7 -16 -6 -27 0 -19 1 -19 10 3 10 24 8 36 -4 24z"/>
<path d="M1940 999 c0 -5 5 -7 10 -4 6 3 10 8 10 11 0 2 -4 4 -10 4 -5 0 -10
-5 -10 -11z"/>
<path d="M820 990 c0 -5 4 -10 8 -10 4 0 8 -8 8 -17 0 -10 4 -29 8 -42 6 -16
5 -21 -3 -17 -16 10 -14 -7 4 -30 8 -10 15 -27 15 -37 0 -10 5 -15 10 -12 6 3
10 1 10 -6 0 -7 3 -9 6 -6 4 4 0 17 -8 29 -9 13 -14 38 -12 56 3 20 0 31 -6
27 -15 -9 -12 39 3 54 10 10 9 11 -5 6 -11 -4 -18 -2 -18 4 0 6 -4 11 -10 11
-5 0 -10 -4 -10 -10z"/>
<path d="M1046 985 c4 -8 8 -15 10 -15 2 0 4 7 4 15 0 8 -4 15 -10 15 -5 0 -7
-7 -4 -15z"/>
<path d="M1878 994 c-5 -7 -7 -24 -6 -38 2 -19 8 -26 24 -26 17 0 21 -5 17
-19 -3 -10 0 -22 5 -25 6 -3 8 2 5 12 -5 21 23 56 38 47 5 -4 10 -21 10 -38
l1 -32 7 29 c7 33 31 47 32 19 0 -12 4 -9 11 10 8 21 7 32 -2 40 -10 9 -12 8
-7 -6 4 -10 3 -16 -1 -13 -4 2 -14 1 -22 -4 -9 -6 -18 -3 -25 7 -10 14 -13 13
-28 -2 -21 -20 -44 -7 -49 28 -2 14 -6 18 -10 11z"/>
<path d="M723 962 c0 -18 4 -28 7 -21 5 8 10 8 14 1 4 -6 13 -9 21 -5 21 8 18
22 -3 16 -12 -3 -22 3 -28 18 -10 22 -11 21 -11 -9z"/>
<path d="M980 957 c0 -14 5 -29 10 -32 6 -3 10 -16 10 -28 0 -13 3 -18 10 -11
6 6 5 23 -4 46 -16 49 -26 58 -26 25z"/>
<path d="M1750 966 c0 -9 5 -16 10 -16 6 0 10 4 10 9 0 6 -4 13 -10 16 -5 3
-10 -1 -10 -9z"/>
<path d="M2075 958 c-3 -8 -7 -27 -9 -41 -1 -14 -10 -37 -19 -51 -17 -26 -7
-36 19 -18 18 12 39 101 26 114 -8 8 -13 7 -17 -4z m12 -20 c-3 -8 -6 -5 -6 6
-1 11 2 17 5 13 3 -3 4 -12 1 -19z"/>
<path d="M1830 949 c0 -14 50 -79 61 -79 5 0 8 11 7 24 -2 17 -6 22 -13 16
-13 -11 -49 26 -40 40 4 6 1 10 -4 10 -6 0 -11 -5 -11 -11z"/>
<path d="M797 935 c-4 -8 -2 -17 3 -20 6 -4 10 -4 10 -1 0 2 3 11 6 20 3 9 2
16 -4 16 -5 0 -12 -7 -15 -15z"/>
<path d="M2106 921 c-4 -6 -2 -11 5 -11 8 0 6 -6 -4 -18 -10 -10 -17 -25 -17
-33 0 -8 10 1 22 19 14 23 18 36 11 43 -7 7 -13 7 -17 0z"/>
<path d="M891 878 c1 -37 2 -39 9 -18 12 36 12 60 0 60 -5 0 -10 -19 -9 -42z"/>
<path d="M2026 903 c-6 -14 -5 -15 5 -6 7 7 10 15 7 18 -3 3 -9 -2 -12 -12z"/>
<path d="M931 884 c0 -11 3 -14 6 -6 3 7 2 16 -1 19 -3 4 -6 -2 -5 -13z"/>
<path d="M953 870 c-6 -16 -10 -30 -7 -30 2 0 10 14 19 30 9 17 12 30 7 30 -4
0 -13 -13 -19 -30z"/>
<path d="M1949 875 c-1 -6 -1 -14 0 -19 1 -5 -4 -13 -11 -18 -10 -6 -10 -10 2
-18 9 -6 11 -13 5 -17 -5 -5 -11 -13 -12 -19 -1 -6 -4 -23 -7 -38 -3 -14 -2
-26 2 -26 13 0 31 -74 21 -85 -5 -5 -9 -13 -9 -19 0 -5 3 -6 7 -3 3 4 11 0 17
-9 9 -12 12 -3 11 40 0 43 -3 55 -14 51 -9 -3 -11 0 -7 10 3 8 1 15 -5 15 -7
0 -8 7 -4 18 4 9 8 26 10 37 1 11 3 25 4 30 1 6 6 3 11 -5 7 -12 10 -8 10 14
0 24 -2 27 -15 16 -18 -15 -20 1 -3 18 9 9 9 15 0 24 -7 7 -13 8 -13 3z"/>
<path d="M785 845 c-19 -14 -19 -15 -1 -8 15 5 17 3 11 -8 -6 -11 -5 -11 5 -2
21 19 8 36 -15 18z"/>
<path d="M1878 855 c-4 -4 -4 -13 -1 -21 3 -8 0 -14 -6 -14 -16 0 -14 -27 5
-55 20 -31 1 -33 -20 -3 -11 15 -16 18 -16 7 0 -8 8 -25 17 -39 16 -22 16 -23
0 -17 -20 7 -21 3 -7 -24 7 -13 7 -19 0 -19 -16 0 -6 -37 18 -67 16 -20 19
-30 10 -40 -8 -10 -8 -17 0 -25 11 -11 14 -6 11 18 0 4 4 10 11 14 8 5 4 16
-12 36 -13 16 -22 36 -22 44 5 46 4 46 15 27 8 -13 7 -22 -2 -33 -10 -12 -9
-13 5 -8 18 7 21 27 6 53 -6 13 -4 29 9 54 13 25 15 38 7 42 -8 3 -7 7 2 11 6
3 12 10 12 16 0 7 -5 6 -14 -1 -12 -10 -15 -7 -18 19 -2 18 -6 29 -10 25z m17
-75 c3 -5 1 -10 -4 -10 -6 0 -11 5 -11 10 0 6 2 10 4 10 3 0 8 -4 11 -10z"/>
<path d="M1004 815 c0 -19 3 -32 8 -29 10 6 11 51 1 57 -5 3 -8 -10 -9 -28z"/>
<path d="M2090 820 c-6 -11 -8 -20 -6 -20 3 0 10 9 16 20 6 11 8 20 6 20 -3 0
-10 -9 -16 -20z"/>
<path d="M2040 820 c0 -5 7 -7 15 -4 8 4 15 8 15 10 0 2 -7 4 -15 4 -8 0 -15
-4 -15 -10z"/>
<path d="M925 809 c3 -9 -1 -22 -10 -29 -8 -7 -15 -17 -15 -22 0 -7 5 -6 13 1
8 6 16 9 18 6 3 -2 5 6 4 20 0 13 -4 27 -8 31 -4 5 -5 1 -2 -7z"/>
<path d="M831 785 c-1 -16 -4 -40 -7 -52 -4 -13 -2 -23 4 -23 13 0 20 49 11
80 -7 24 -7 24 -8 -5z"/>
<path d="M811 764 c0 -11 3 -14 6 -6 3 7 2 16 -1 19 -3 4 -6 -2 -5 -13z"/>
<path d="M1143 741 c1 -15 4 -17 14 -9 7 5 10 14 7 19 -10 16 -23 9 -21 -10z"/>
<path d="M1710 750 c0 -5 5 -10 10 -10 6 0 10 5 10 10 0 6 -4 10 -10 10 -5 0
-10 -4 -10 -10z"/>
<path d="M1972 740 c0 -14 2 -19 5 -12 2 6 2 18 0 25 -3 6 -5 1 -5 -13z"/>
<path d="M1024 727 c-31 -16 -65 -68 -53 -83 7 -8 6 -14 -3 -17 -7 -3 -3 -6 8
-6 22 -1 29 27 10 41 -10 6 16 38 31 38 4 0 14 9 21 20 7 11 11 19 10 19 -2
-1 -12 -6 -24 -12z"/>
<path d="M1737 726 c-4 -10 -1 -13 8 -10 7 3 16 -3 19 -14 8 -24 43 -35 50
-16 3 7 1 16 -4 19 -4 3 -10 -1 -13 -7 -2 -8 -10 -1 -17 15 -14 29 -35 36 -43
13z"/>
<path d="M920 719 c0 -5 5 -7 10 -4 6 3 10 8 10 11 0 2 -4 4 -10 4 -5 0 -10
-5 -10 -11z"/>
<path d="M1240 713 c0 -5 13 -20 28 -35 26 -26 38 -28 72 -15 8 3 22 8 30 10
8 3 3 6 -12 6 -14 1 -34 4 -44 8 -11 4 -15 3 -10 -5 3 -6 2 -13 -4 -17 -5 -3
-10 0 -10 8 0 8 -8 21 -18 30 -20 18 -32 22 -32 10z"/>
<path d="M1036 691 c-16 -17 -16 -18 8 -14 16 3 23 10 19 19 -7 18 -7 18 -27
-5z"/>
<path d="M1150 695 c0 -8 4 -15 9 -15 5 0 14 7 21 15 10 13 9 15 -9 15 -12 0
-21 -6 -21 -15z"/>
<path d="M1910 688 c0 -8 6 -21 14 -27 11 -10 14 -9 12 4 -1 8 -8 21 -14 27
-9 9 -12 8 -12 -4z"/>
<path d="M1617 670 c3 -11 7 -20 9 -20 2 0 4 9 4 20 0 11 -4 20 -9 20 -5 0 -7
-9 -4 -20z"/>
<path d="M1654 670 c0 -24 11 -26 20 -4 8 22 8 24 -7 24 -7 0 -13 -9 -13 -20z"/>
<path d="M1710 681 c0 -5 11 -16 25 -25 25 -16 30 -11 19 18 -6 17 -44 23 -44
7z"/>
<path d="M1101 654 c0 -11 3 -14 6 -6 3 7 2 16 -1 19 -3 4 -6 -2 -5 -13z"/>
<path d="M1250 655 c0 -13 25 -55 32 -55 6 0 7 6 4 13 -3 6 -9 20 -12 30 -6
15 -24 25 -24 12z"/>
<path d="M915 630 c-4 -7 -1 -16 6 -21 17 -10 26 8 11 23 -6 6 -12 6 -17 -2z"/>
<path d="M1500 630 c0 -5 5 -10 10 -10 6 0 10 5 10 10 0 6 -4 10 -10 10 -5 0
-10 -4 -10 -10z"/>
<path d="M1587 571 c-61 -150 -119 -194 -258 -195 -81 0 -117 26 -162 118 -21
40 -37 81 -37 89 0 9 -5 19 -11 22 -18 12 -1 -61 27 -120 56 -115 124 -148
253 -124 39 7 71 17 71 21 0 4 6 8 14 8 24 0 78 66 102 125 22 54 41 125 33
125 -2 0 -17 -31 -32 -69z"/>
<path d="M1440 615 c0 -8 5 -15 10 -15 6 0 10 7 10 15 0 8 -4 15 -10 15 -5 0
-10 -7 -10 -15z"/>
<path d="M1641 614 c0 -11 3 -14 6 -6 3 7 2 16 -1 19 -3 4 -6 -2 -5 -13z"/>
<path d="M1760 618 c0 -5 4 -8 9 -8 5 0 16 -3 24 -6 8 -3 17 2 20 10 5 12 -1
15 -23 13 -17 -1 -30 -5 -30 -9z"/>
<path d="M1833 609 c-11 -11 4 -69 19 -69 4 0 3 12 -3 26 -9 25 -8 26 7 13 16
-13 16 -12 4 11 -7 14 -14 26 -15 27 -1 2 -6 -2 -12 -8z"/>
<path d="M875 590 c-3 -5 -2 -10 4 -10 5 0 13 5 16 10 3 6 2 10 -4 10 -5 0
-13 -4 -16 -10z"/>
<path d="M965 590 c3 -5 1 -11 -4 -11 -6 -1 -16 -2 -23 -3 -13 -1 -24 -26 -11
-26 5 0 15 6 21 12 10 10 15 10 22 -2 5 -8 5 -19 0 -26 -10 -12 -3 -24 13 -24
6 0 7 3 4 7 -4 3 -1 13 5 21 10 11 9 17 -5 27 -10 7 -15 15 -10 18 12 7 44
-18 35 -28 -4 -5 -1 -5 6 -1 11 6 9 12 -7 27 -21 20 -57 27 -46 9z"/>
<path d="M1740 591 c0 -6 5 -13 10 -16 6 -3 10 1 10 9 0 9 -4 16 -10 16 -5 0
-10 -4 -10 -9z"/>
<path d="M1075 570 c3 -5 8 -10 11 -10 2 0 4 5 4 10 0 6 -5 10 -11 10 -5 0 -7
-4 -4 -10z"/>
<path d="M1770 559 c0 -5 5 -7 10 -4 6 3 10 8 10 11 0 2 -4 4 -10 4 -5 0 -10
-5 -10 -11z"/>
<path d="M1816 529 c1 -22 6 -45 12 -51 6 -6 9 4 8 31 -1 23 -7 46 -12 51 -7
7 -10 -3 -8 -31z"/>
<path d="M1790 530 c13 -8 13 -10 -2 -10 -9 0 -19 -4 -22 -9 -8 -12 27 -8 36
4 12 16 9 25 -9 25 -15 0 -16 -2 -3 -10z"/>
<path d="M1725 507 c-17 -17 -17 -19 -2 -14 13 5 17 1 17 -15 0 -17 -3 -19
-12 -10 -18 18 -33 15 -18 -3 7 -9 19 -14 27 -11 7 3 13 1 13 -4 0 -6 5 -10
10 -10 7 0 7 6 0 20 -6 12 -7 20 -1 20 5 0 12 -6 14 -12 3 -8 6 -6 6 5 1 9 -5
17 -13 17 -8 0 -16 8 -18 18 -3 18 -4 18 -23 -1z"/>
<path d="M1660 512 c0 -12 19 -26 26 -19 2 2 -2 10 -11 17 -9 8 -15 8 -15 2z"/>
<path d="M933 503 c-7 -2 -13 -9 -13 -15 0 -6 6 -6 15 2 12 10 15 9 15 -5 0
-14 3 -15 15 -5 25 21 2 37 -32 23z"/>
<path d="M1862 493 c9 -11 14 -31 11 -50 -2 -17 1 -34 7 -38 6 -4 9 3 7 17 -1
13 3 22 9 21 6 -1 11 3 11 10 0 7 4 20 8 30 4 10 3 17 -4 17 -6 0 -11 -6 -11
-14 0 -8 -5 -18 -12 -22 -7 -4 -8 -3 -4 5 4 6 1 18 -8 26 -21 21 -32 19 -14
-2z"/>
<path d="M995 480 c-19 -8 -19 -9 2 -9 12 -1 25 4 28 9 7 12 -2 12 -30 0z"/>
<path d="M1640 470 c0 -5 5 -10 11 -10 5 0 7 5 4 10 -3 6 -8 10 -11 10 -2 0
-4 -4 -4 -10z"/>
<path d="M1800 462 c0 -12 -4 -22 -9 -22 -15 0 0 -40 20 -54 10 -7 17 -15 14
-17 -2 -3 5 -5 15 -5 18 0 18 2 3 18 -8 10 -19 15 -24 13 -4 -3 -7 4 -6 15 1
12 8 20 18 20 17 0 36 36 26 47 -3 2 -8 -5 -12 -17 l-7 -21 -19 22 -19 22 0
-21z"/>
<path d="M920 461 c0 -6 5 -13 10 -16 6 -3 10 1 10 9 0 9 -4 16 -10 16 -5 0
-10 -4 -10 -9z"/>
<path d="M1038 463 c6 -2 10 -9 7 -14 -4 -5 1 -6 10 -2 13 5 14 7 3 14 -7 5
-17 8 -23 8 -5 0 -4 -3 3 -6z"/>
<path d="M1000 450 c0 -5 5 -10 11 -10 5 0 7 -5 3 -11 -5 -8 -10 -6 -16 5 -12
21 -32 20 -49 0 -12 -15 -11 -16 8 -10 12 4 24 2 28 -4 3 -5 -1 -10 -9 -10
-27 0 -17 -15 18 -28 33 -12 66 -8 66 9 0 5 -10 5 -23 0 -31 -12 -54 1 -33 19
9 7 23 10 31 6 13 -5 12 -1 -2 19 -19 25 -33 32 -33 15z"/>
<path d="M1650 446 c0 -2 7 -9 15 -16 9 -7 15 -8 15 -2 0 5 -7 12 -15 16 -8 3
-15 4 -15 2z"/>
<path d="M1582 423 c-10 -20 -5 -43 9 -43 4 0 6 7 3 15 -4 8 -1 22 6 30 8 10
9 15 2 15 -6 0 -15 -8 -20 -17z"/>
<path d="M1690 433 c0 -12 38 -48 45 -41 3 2 -6 15 -20 28 -14 13 -25 19 -25
13z"/>
<path d="M1760 408 c21 -23 27 -48 10 -48 -5 0 -7 7 -4 15 4 8 1 15 -5 15 -14
0 -14 -27 0 -36 6 -3 9 -17 6 -30 -2 -13 2 -29 10 -36 12 -10 13 -7 8 15 -5
17 -3 27 4 27 6 0 11 -4 11 -10 0 -5 7 -10 16 -10 14 0 14 1 0 16 -9 8 -16 24
-16 33 0 21 -36 71 -51 71 -5 0 -1 -10 11 -22z"/>
<path d="M1275 410 c3 -5 10 -10 16 -10 5 0 9 5 9 10 0 6 -7 10 -16 10 -8 0
-12 -4 -9 -10z"/>
<path d="M1620 409 c0 -5 5 -7 10 -4 6 3 10 8 10 11 0 2 -4 4 -10 4 -5 0 -10
-5 -10 -11z"/>
<path d="M1833 406 c5 -15 24 -18 24 -3 0 8 -6 14 -14 14 -7 0 -12 -5 -10 -11z"/>
<path d="M1066 393 c-3 -10 -9 -25 -12 -33 -4 -8 4 -5 17 7 17 16 20 26 12 34
-7 7 -12 5 -17 -8z"/>
<path d="M1670 380 c0 -11 2 -20 4 -20 2 0 11 -2 18 -5 9 -4 14 2 15 16 1 15
-2 19 -13 15 -9 -3 -12 -1 -9 4 3 6 1 10 -4 10 -6 0 -11 -9 -11 -20z"/>
<path d="M1125 380 c4 -6 11 -8 16 -5 14 9 11 15 -7 15 -8 0 -12 -5 -9 -10z"/>
<path d="M1530 384 c0 -5 12 -18 27 -28 16 -12 24 -14 21 -6 -5 16 -48 46 -48
34z"/>
<path d="M1720 369 c0 -5 5 -7 10 -4 6 3 10 8 10 11 0 2 -4 4 -10 4 -5 0 -10
-5 -10 -11z"/>
<path d="M970 367 c0 -16 25 -57 34 -57 6 0 4 -5 -4 -10 -8 -5 -10 -10 -5 -10
16 0 41 21 30 26 -25 11 -39 23 -33 29 3 4 15 2 25 -4 15 -8 20 -7 20 5 0 7
-8 14 -18 14 -9 0 -24 3 -33 6 -9 3 -16 4 -16 1z"/>
<path d="M1093 350 c-13 -6 -23 -18 -23 -30 0 -11 -4 -20 -8 -20 -5 0 -18 -8
-30 -18 -16 -14 -18 -22 -10 -30 15 -15 28 -15 28 -1 0 5 -4 7 -10 4 -5 -3
-10 -1 -10 4 0 6 16 11 36 11 20 0 33 4 29 10 -3 5 -13 6 -23 3 -15 -6 -15 -4
2 15 11 12 15 22 10 22 -5 0 2 9 16 20 27 22 26 23 -7 10z"/>
<path d="M1487 335 c-4 -8 -2 -17 3 -20 6 -4 10 3 10 14 0 25 -6 27 -13 6z"/>
<path d="M1650 340 c0 -5 3 -9 8 -9 20 3 32 -2 26 -13 -4 -7 -3 -8 5 -4 9 6 9
11 0 22 -13 16 -39 19 -39 4z"/>
<path d="M1110 330 c-9 -6 -10 -10 -3 -10 6 0 15 5 18 10 8 12 4 12 -15 0z"/>
<path d="M1217 327 c-4 -10 2 -13 19 -9 13 2 21 8 18 13 -8 14 -31 11 -37 -4z"/>
<path d="M1300 325 c-7 -9 -8 -15 -2 -15 5 0 12 7 16 15 3 8 4 15 2 15 -2 0
-9 -7 -16 -15z"/>
<path d="M1318 310 c-9 -17 -15 -30 -12 -30 9 0 30 24 37 43 11 28 -7 19 -25
-13z"/>
<path d="M1045 320 c-3 -5 -1 -10 4 -10 6 0 11 5 11 10 0 6 -2 10 -4 10 -3 0
-8 -4 -11 -10z"/>
<path d="M1605 319 c-4 -6 -5 -12 -2 -15 2 -3 7 2 10 11 7 17 1 20 -8 4z"/>
<path d="M1710 320 c0 -5 7 -10 15 -10 8 0 15 5 15 10 0 6 -7 10 -15 10 -8 0
-15 -4 -15 -10z"/>
<path d="M1353 290 c-6 -16 -10 -30 -8 -30 10 0 35 33 35 46 0 24 -15 15 -27
-16z"/>
<path d="M1390 310 c0 -5 5 -10 11 -10 5 0 7 5 4 10 -3 6 -8 10 -11 10 -2 0
-4 -4 -4 -10z"/>
<path d="M1560 310 c0 -5 5 -10 11 -10 5 0 7 5 4 10 -3 6 -8 10 -11 10 -2 0
-4 -4 -4 -10z"/>
<path d="M1108 293 c6 -11 8 -24 4 -28 -4 -5 -2 -6 3 -2 15 8 48 -20 39 -34
-5 -8 -3 -10 5 -5 7 5 10 15 7 23 -4 10 -2 13 8 10 10 -4 13 -1 9 9 -3 8 -8
12 -11 10 -3 -3 -21 4 -40 16 -34 21 -34 21 -24 1z m47 -31 c-3 -3 -11 0 -18
7 -9 10 -8 11 6 5 10 -3 15 -9 12 -12z"/>
<path d="M1468 283 c-11 -15 -11 -16 4 -10 23 8 33 -9 12 -21 -9 -5 -13 -12
-8 -15 13 -7 38 13 53 43 11 22 11 23 -2 7 -13 -16 -16 -16 -30 -3 -13 14 -16
14 -29 -1z"/>
<path d="M1615 285 c-22 -8 -41 -15 -43 -15 -2 0 0 -4 3 -10 9 -15 27 -12 20
3 -4 6 -1 5 7 -3 7 -8 20 -16 28 -18 11 -3 11 1 -3 16 -16 18 -16 19 18 17 19
0 40 -7 47 -14 11 -12 10 -13 -6 -7 -16 6 -17 4 -6 -9 20 -25 32 3 13 32 -18
27 -24 27 -78 8z"/>
<path d="M1728 293 c13 -3 21 -10 19 -16 -3 -7 -10 -11 -16 -9 -7 1 -10 -2 -6
-8 3 -6 11 -8 16 -5 5 4 4 -5 -3 -20 -10 -22 -16 -25 -41 -19 -20 4 -27 3 -23
-5 4 -6 14 -11 22 -11 8 0 14 -4 14 -10 0 -5 -7 -10 -15 -10 -8 0 -15 -5 -15
-11 0 -8 -5 -7 -15 1 -11 9 -14 22 -9 44 7 34 3 33 -15 -1 -10 -19 -7 -26 16
-47 15 -14 24 -29 19 -33 -4 -4 -12 -1 -17 7 -8 12 -9 11 -7 -5 2 -14 -3 -21
-19 -23 -13 -2 -23 -10 -23 -18 0 -13 5 -12 31 3 38 23 67 53 50 53 -7 0 -10
4 -6 10 3 5 12 7 19 4 9 -3 17 3 21 15 3 12 11 21 16 21 5 0 9 7 9 16 0 9 5
12 12 8 7 -5 8 -3 3 6 -4 7 -3 15 4 19 17 11 -16 51 -42 50 -21 -2 -21 -2 1
-6z"/>
<path d="M1424 274 c3 -8 -1 -29 -10 -46 -9 -16 -11 -27 -6 -24 6 3 13 -1 16
-10 4 -9 9 -14 13 -11 3 4 0 14 -8 23 -11 13 -11 18 -1 21 15 6 16 63 1 63 -6
0 -8 -7 -5 -16z"/>
<path d="M1308 251 c8 -5 12 -20 10 -36 -2 -16 2 -30 10 -32 8 -3 10 1 6 12
-4 10 -1 21 7 26 10 6 10 9 2 9 -7 0 -13 7 -13 15 0 8 -8 15 -17 15 -14 0 -15
-2 -5 -9z"/>
<path d="M1075 239 c-3 -5 0 -7 7 -4 7 3 19 1 27 -4 12 -8 12 -13 3 -24 -7 -8
-10 -22 -6 -31 3 -9 1 -16 -5 -16 -6 0 -11 -7 -11 -17 0 -14 3 -13 18 4 24 28
49 18 25 -11 -18 -21 -18 -21 3 -3 11 9 26 17 32 17 7 0 12 10 12 23 -1 21 -1
21 -11 3 -9 -15 -13 -16 -20 -5 -5 8 -3 16 4 21 6 4 8 10 4 14 -4 4 -14 -1
-21 -12 -8 -10 -18 -15 -22 -11 -5 4 -3 11 3 15 6 4 13 16 15 27 2 15 -3 20
-24 21 -15 2 -30 -1 -33 -7z"/>
<path d="M1190 235 c-11 -13 -10 -14 4 -9 9 3 16 10 16 15 0 13 -6 11 -20 -6z"/>
<path d="M1244 242 c4 -7 0 -12 -10 -12 -10 0 -14 -3 -11 -7 4 -3 2 -12 -5
-20 -19 -23 -1 -26 21 -4 24 24 26 37 9 47 -7 4 -8 3 -4 -4z"/>
<path d="M1277 226 c-3 -8 0 -17 8 -20 9 -3 13 2 12 15 -2 22 -13 25 -20 5z"/>
<path d="M1038 223 c6 -2 12 -11 12 -19 0 -18 10 -17 35 2 20 16 20 16 -2 10
-12 -4 -24 -2 -28 4 -3 5 -12 10 -18 9 -9 0 -9 -2 1 -6z"/>
<path d="M1523 215 c-9 -10 -8 -17 7 -30 22 -20 31 -8 16 21 -9 17 -14 19 -23
9z"/>
<path d="M1600 226 c0 -2 7 -9 15 -16 13 -11 14 -10 9 4 -5 14 -24 23 -24 12z"/>
<path d="M1370 199 c0 -12 -8 -28 -17 -35 -17 -12 -17 -13 -1 -14 19 0 23 5
32 43 4 16 2 27 -4 27 -5 0 -10 -10 -10 -21z"/>
<path d="M1607 184 c3 -7 9 -14 14 -14 14 0 10 17 -5 23 -10 4 -13 1 -9 -9z"/>
<path d="M1075 180 c-3 -5 -1 -10 4 -10 6 0 11 5 11 10 0 6 -2 10 -4 10 -3 0
-8 -4 -11 -10z"/>
<path d="M1260 176 c0 -8 8 -16 18 -20 9 -3 23 -9 30 -12 7 -4 10 0 6 9 -8 21
-54 41 -54 23z"/>
<path d="M1470 170 c-8 -15 -8 -20 1 -20 7 0 9 -3 5 -7 -4 -5 -13 -8 -19 -8
-7 0 -12 -7 -12 -15 -1 -8 -6 -14 -13 -13 -14 3 -16 -13 -3 -22 6 -3 15 4 21
15 9 17 14 19 25 10 8 -6 11 -18 8 -26 -3 -8 -1 -14 5 -14 11 0 10 25 0 36 -9
8 2 35 12 29 4 -2 16 2 26 10 17 13 16 14 -15 8 -31 -5 -33 -4 -26 16 8 27 -1
27 -15 1z"/>
<path d="M1400 158 c0 -9 5 -20 11 -23 17 -11 18 -2 3 19 -12 17 -14 17 -14 4z"/>
<path d="M1420 166 c0 -2 7 -7 16 -10 8 -3 12 -2 9 4 -6 10 -25 14 -25 6z"/>
<path d="M1602 150 c7 -11 17 -20 22 -20 5 0 1 9 -9 20 -10 11 -20 20 -22 20
-2 0 2 -9 9 -20z"/>
<path d="M1563 140 c2 -22 -2 -25 -26 -23 -26 2 -27 0 -24 -33 4 -37 18 -51
23 -22 1 10 -2 18 -7 18 -5 0 -9 5 -9 11 0 7 9 9 23 5 19 -4 26 0 35 20 14 30
15 37 3 30 -5 -4 -12 0 -15 6 -2 7 -4 2 -3 -12z"/>
<path d="M1235 133 c-15 -15 -8 -44 16 -58 14 -9 27 4 13 13 -13 9 -24 38 -17
45 3 3 16 2 30 -4 13 -5 22 -5 19 0 -11 16 -46 19 -61 4z"/>
<path d="M1153 122 c-21 -21 -15 -27 7 -7 19 18 20 17 20 -3 0 -33 34 -24 36
9 2 20 -43 21 -63 1z"/>
<path d="M1335 130 c3 -5 8 -10 11 -10 2 0 4 5 4 10 0 6 -5 10 -11 10 -5 0 -7
-4 -4 -10z"/>
<path d="M1384 122 c-12 -8 -14 -83 -2 -76 5 3 8 12 8 20 0 8 5 14 10 14 6 0
10 -7 10 -15 0 -8 5 -15 10 -15 17 0 11 18 -10 33 -13 9 -18 20 -14 31 7 18 4
19 -12 8z"/>
<path d="M1305 100 c-4 -6 -10 -8 -14 -6 -3 3 -7 -4 -7 -14 0 -10 5 -16 11
-14 15 6 37 44 26 44 -6 0 -13 -5 -16 -10z"/>
<path d="M1568 79 c-24 -25 -23 -37 0 -16 10 10 22 14 26 10 4 -4 4 0 0 10 -3
9 -7 17 -8 16 0 0 -9 -9 -18 -20z"/>
<path d="M1340 81 c0 -5 -3 -17 -7 -27 -4 -11 -3 -15 4 -11 14 9 24 47 12 47
-5 0 -9 -4 -9 -9z"/>
<path d="M1455 76 c-6 -13 -3 -23 10 -32 10 -8 21 -11 24 -8 3 3 0 8 -6 12 -6
4 -13 16 -15 27 -5 19 -5 19 -13 1z"/>
<path d="M1295 41 c-3 -5 -1 -12 5 -16 5 -3 10 1 10 9 0 18 -6 21 -15 7z"/>
</g>
</svg>
