<?xml version="1.0" standalone="no"?>
<!DOCTYPE svg PUBLIC "-//W3C//DTD SVG 20010904//EN"
 "http://www.w3.org/TR/2001/REC-SVG-20010904/DTD/svg10.dtd">
<svg version="1.0" xmlns="http://www.w3.org/2000/svg"
 width="300.000000pt" height="300.000000pt" viewBox="0 0 300.000000 300.000000"
 preserveAspectRatio="xMidYMid meet">
<metadata>
Created by potrace 1.10, written by Peter Selinger 2001-2011
</metadata>
<g transform="translate(0.000000,300.000000) scale(0.100000,-0.100000)"
fill="#000000" stroke="none">
<path d="M1330 2426 c-194 -43 -367 -203 -427 -395 -25 -79 -27 -98 -25 -234
2 -121 0 -151 -13 -163 -17 -18 -20 -40 -5 -49 6 -3 10 -25 11 -48 1 -35 2
-38 9 -17 5 19 7 14 7 -24 0 -46 -1 -47 -14 -25 -11 18 -12 19 -7 4 3 -11 13
-55 21 -98 10 -55 32 -115 77 -210 35 -72 78 -172 96 -222 61 -168 149 -331
195 -361 34 -22 43 -12 14 15 -14 13 -17 21 -10 21 10 0 11 3 2 13 -6 8 -7 17
-3 21 4 4 2 7 -3 6 -25 -5 -45 1 -45 14 0 8 13 16 29 18 17 2 28 1 25 -4 -3
-4 -13 -8 -22 -9 -10 -1 -7 -4 8 -8 14 -4 26 -12 26 -19 1 -7 2 -20 3 -29 1
-15 3 -16 11 -3 6 10 6 16 0 18 -6 2 -7 8 -4 14 4 5 13 3 23 -6 15 -14 18 -13
29 4 7 12 8 21 2 25 -6 4 -13 -1 -16 -10 -5 -12 -10 -13 -20 -4 -8 6 -11 16
-7 22 3 5 1 7 -4 4 -6 -4 -13 0 -16 7 -4 11 -19 14 -51 11 -29 -2 -44 1 -40 7
3 5 15 7 26 5 11 -3 21 0 25 9 3 8 10 11 17 7 6 -3 6 -1 -1 8 -10 10 -16 10
-25 1 -18 -18 -41 -15 -61 8 -17 20 -16 20 5 17 13 -2 18 -2 11 0 -19 7 -4 32
17 28 20 -4 21 18 2 37 -10 10 -14 8 -18 -9 -4 -12 -12 -19 -19 -17 -7 3 -16
0 -21 -7 -5 -9 -2 -10 9 -6 10 3 17 2 17 -3 0 -12 -27 -13 -34 -1 -3 5 7 26
22 47 15 22 27 46 27 54 0 17 -35 27 -35 11 0 -6 -8 -11 -17 -12 -12 0 -13 -2
-5 -6 7 -3 19 0 27 7 11 9 12 7 8 -12 -6 -22 -20 -38 -35 -38 -4 0 -4 7 -1 17
4 10 2 14 -5 9 -17 -10 -22 8 -12 43 5 19 5 41 0 54 -8 19 -9 18 -11 -13 -1
-24 -3 -28 -6 -12 -2 12 -10 22 -16 22 -7 0 -6 4 3 10 8 5 10 10 5 10 -16 0
-47 58 -34 62 6 2 2 14 -10 27 -25 28 -26 39 -7 60 12 13 12 18 1 28 -10 10
-16 9 -26 -3 -10 -12 -9 -13 5 -8 9 3 16 1 16 -6 0 -24 -34 -4 -42 25 -5 17
-12 37 -15 45 -4 8 -5 19 -4 23 1 5 -3 6 -9 2 -10 -6 -14 7 -11 34 2 7 -2 10
-7 7 -16 -10 -42 94 -42 171 0 76 -16 153 -32 153 -4 0 -8 5 -8 11 0 5 5 7 10
4 6 -3 10 1 10 9 0 9 3 16 8 16 4 0 8 51 10 113 3 118 30 263 61 332 11 22 35
60 54 85 20 24 33 48 31 52 -3 5 -2 7 3 6 4 -2 31 13 58 32 46 32 100 49 205
66 52 9 153 11 165 3 6 -3 36 -11 69 -17 61 -12 220 -75 247 -98 21 -18 36
-18 36 1 0 8 -3 13 -5 10 -3 -3 -20 7 -39 21 -18 14 -33 22 -33 19 0 -4 -7 1
-16 9 -19 19 -34 21 -35 4 0 -7 -4 -3 -9 10 -5 12 -17 22 -25 22 -9 0 -13 4
-10 10 3 6 -1 7 -9 4 -9 -3 -24 -3 -33 1 -10 4 -27 9 -38 10 -29 4 -49 10 -60
17 -17 10 -189 6 -203 -5 -9 -7 -11 -6 -7 5 4 9 0 15 -9 15 -8 0 -15 -3 -14
-6 2 -19 -4 -22 -19 -10 -9 8 -14 9 -10 3 4 -7 -2 -14 -13 -17 -37 -10 -32 13
7 30 47 21 55 22 71 9 9 -7 12 -5 10 4 -7 30 123 38 221 14 72 -18 237 -107
252 -136 5 -10 15 -18 22 -18 7 0 18 -4 26 -9 11 -7 12 -13 3 -24 -9 -10 -8
-18 4 -33 11 -13 17 -15 20 -6 9 21 29 13 63 -25 41 -47 82 -126 87 -172 19
-141 21 -167 17 -174 -10 -17 -8 -77 2 -81 5 -2 0 -14 -12 -27 l-23 -23 0 26
c0 15 -4 30 -10 33 -5 3 -10 11 -10 17 0 6 6 5 16 -2 8 -8 14 -9 13 -4 -1 5 0
11 1 14 7 20 7 40 -2 40 -6 0 -8 -7 -4 -15 3 -8 1 -15 -4 -15 -6 0 -10 7 -10
15 0 8 -5 15 -11 15 -5 0 -7 5 -4 10 4 6 11 8 16 5 5 -3 6 2 3 12 -5 16 -4 16
10 -1 9 -11 19 -16 23 -13 3 4 -2 14 -13 22 -15 11 -21 11 -29 2 -14 -16 -39
-21 -29 -5 12 19 11 59 -3 76 -10 14 -12 14 -13 3 0 -11 -4 -9 -15 5 -8 10
-15 14 -15 8 0 -16 35 -45 44 -37 4 4 4 -1 0 -11 -5 -14 -9 -15 -15 -5 -17 28
-18 1 -2 -32 26 -49 42 -145 36 -214 -2 -33 -5 -97 -5 -141 0 -70 -3 -81 -17
-79 -10 1 -15 11 -14 24 2 11 -2 21 -7 21 -6 0 -10 9 -10 20 0 11 -5 20 -12
20 -6 0 -3 7 8 16 10 8 14 13 8 10 -7 -3 -14 4 -17 15 -5 20 -27 18 -27 -2 0
-6 5 -7 11 -3 8 5 10 -1 6 -18 -4 -13 -1 -33 6 -44 7 -10 13 -26 12 -34 0 -8
8 -23 18 -32 19 -17 34 -84 17 -73 -6 4 -10 18 -10 32 0 30 -9 27 -15 -5 -2
-11 3 -26 10 -32 8 -6 11 -18 8 -27 -5 -12 -7 -12 -14 -1 -6 9 -9 3 -9 -17 -2
-56 -8 -96 -15 -103 -4 -4 -5 8 -2 26 4 21 3 31 -3 27 -6 -3 -10 1 -10 9 0 9
-4 16 -10 16 -5 0 -10 -7 -10 -15 0 -8 4 -15 10 -15 14 0 8 -49 -7 -55 -11 -3
-11 0 -2 16 9 17 8 20 -3 17 -20 -7 -17 -44 5 -40 9 2 17 -2 17 -8 0 -6 -4 -9
-10 -5 -5 3 -16 -8 -25 -24 -17 -34 -20 -75 -5 -66 6 4 7 12 4 18 -4 8 -2 7 7
-1 11 -10 11 -15 1 -20 -6 -5 -13 -20 -14 -34 -1 -15 -6 -24 -10 -22 -4 3 -8
-7 -8 -21 0 -14 -4 -24 -9 -21 -8 5 -8 27 -1 46 1 3 2 9 1 13 -1 5 3 6 9 2 16
-10 12 25 -5 41 -13 14 -15 11 -15 -21 0 -22 -4 -34 -10 -30 -11 7 -14 -8 -3
-18 3 -4 7 -19 8 -33 1 -31 -19 -51 -38 -36 -10 8 -12 2 -9 -29 3 -29 0 -40
-12 -45 -9 -4 -16 -18 -16 -34 0 -16 -4 -31 -8 -34 -5 -3 -8 21 -8 53 1 53 -1
59 -18 55 -11 -2 -23 -9 -27 -16 -6 -9 -12 -8 -26 2 -10 8 -15 11 -11 6 4 -5
3 -17 -3 -27 -7 -15 -6 -21 6 -25 8 -3 12 -10 9 -15 -5 -8 9 -13 29 -10 10 1
9 -11 -3 -29 -5 -8 -10 -10 -10 -4 0 7 -11 19 -25 28 -25 16 -25 16 -13 -3 6
-11 15 -18 20 -15 13 8 21 -47 9 -59 -10 -9 -12 -9 -9 2 2 7 -4 16 -12 18 -10
3 -11 2 -4 -4 27 -20 -7 -106 -35 -88 -17 10 -3 25 17 19 14 -5 14 -4 2 4 -8
6 -19 8 -25 4 -5 -4 -14 -7 -19 -7 -5 0 -10 -8 -12 -18 -2 -13 1 -15 10 -8 13
11 36 -4 36 -23 0 -5 -3 -7 -6 -3 -4 3 -13 -1 -21 -9 -15 -14 -38 -10 -28 6 3
5 1 11 -5 15 -10 6 -15 -14 -11 -44 2 -7 -4 -11 -11 -9 -7 3 -12 17 -12 32 1
22 -3 26 -19 24 -11 -2 -26 -14 -34 -28 -13 -22 -13 -23 0 -7 12 14 16 15 26
4 6 -8 7 -18 3 -22 -4 -5 -1 -5 6 -1 6 4 12 2 12 -3 0 -15 -30 -14 -30 2 -1 7
-6 4 -15 -7 -24 -32 -45 4 -23 40 4 6 1 20 -7 30 -15 19 -15 19 -30 0 -19 -25
-28 -16 -16 16 9 25 -2 59 -15 45 -11 -11 -14 -38 -3 -31 5 3 9 -2 9 -11 0
-12 -6 -15 -20 -10 -11 4 -20 2 -20 -4 0 -6 8 -11 18 -11 13 0 14 -2 3 -9 -9
-6 -6 -9 13 -9 14 0 31 7 37 15 9 11 14 11 20 2 4 -8 -2 -20 -17 -31 -13 -11
-24 -26 -24 -33 0 -9 -8 -12 -21 -10 -39 8 -59 16 -59 26 0 13 14 11 29 -4 11
-10 13 -9 7 6 -3 10 -6 23 -6 29 0 6 -7 5 -17 -3 -11 -10 -14 -10 -9 -1 4 6 2
12 -3 12 -11 0 -12 -4 -15 -37 -2 -24 86 -52 149 -46 53 5 157 48 190 79 36
33 81 97 122 174 23 41 57 103 77 138 33 58 73 163 126 325 12 37 26 67 31 67
6 0 7 5 4 10 -3 6 1 10 9 10 21 0 20 -9 -1 -33 -18 -19 -18 -20 13 -4 75 39
119 125 131 259 7 81 -10 118 -55 118 l-27 0 1 112 c1 62 -2 139 -6 170 -18
123 -86 220 -235 331 -182 135 -333 179 -495 143z m-126 -94 c2 -4 -5 -9 -17
-9 -17 -2 -19 0 -7 7 18 12 18 12 24 2z m678 -144 c-6 -6 -16 -7 -22 -3 -9 6
-9 9 1 16 17 10 34 0 21 -13z m242 -547 c13 -14 16 -32 13 -72 l-3 -54 -2 58
c-1 41 -6 59 -17 64 -24 8 -30 -4 -11 -22 11 -11 14 -25 9 -43 -3 -15 -6 -49
-6 -77 0 -27 -4 -56 -9 -62 -6 -7 -8 -18 -5 -25 2 -7 -1 -19 -9 -26 -10 -9
-15 -8 -24 6 -9 14 -10 11 -7 -16 3 -25 0 -32 -11 -27 -9 3 -12 0 -9 -9 4 -11
1 -11 -19 -2 -14 7 -24 20 -24 33 0 25 11 34 59 48 41 12 47 24 25 50 -8 11
-13 15 -10 8 4 -6 2 -14 -4 -18 -12 -8 -23 17 -24 58 -1 17 -7 32 -14 35 -17
5 -6 -86 12 -99 5 -4 0 -12 -12 -18 -19 -10 -20 -8 -24 41 -3 49 15 164 27
177 3 3 9 0 14 -7 5 -9 12 -9 27 3 26 19 38 19 58 -4z m3 -163 c-3 -8 -6 -5
-6 6 -1 11 2 17 5 13 3 -3 4 -12 1 -19z m-240 -380 c-3 -8 -6 -5 -6 6 -1 11 2
17 5 13 3 -3 4 -12 1 -19z m-87 -217 c0 -6 -4 -12 -8 -15 -5 -3 -9 1 -9 9 0 8
4 15 9 15 4 0 8 -4 8 -9z m-103 -48 c-1 -10 -7 -24 -11 -32 -8 -12 -11 -10
-18 8 -5 13 -12 19 -19 15 -8 -4 -9 -3 -5 5 6 9 11 9 22 0 11 -9 14 -8 14 5 0
9 4 16 10 16 5 0 9 -8 7 -17z m19 -64 c1 -28 -3 -52 -10 -56 -6 -3 -8 -3 -4 2
4 4 3 14 -3 21 -8 10 -8 22 0 45 6 17 8 36 4 43 -3 6 -2 7 2 3 5 -4 10 -30 11
-58z m-506 47 c0 -3 -4 -8 -10 -11 -5 -3 -10 -1 -10 4 0 6 5 11 10 11 6 0 10
-2 10 -4z m477 -108 c-3 -8 -6 -5 -6 6 -1 11 2 17 5 13 3 -3 4 -12 1 -19z
m-439 -76 c6 -18 -15 -14 -22 4 -4 10 -1 14 6 12 6 -2 14 -10 16 -16z m262
-43 c0 -6 -4 -7 -10 -4 -5 3 -10 11 -10 16 0 6 5 7 10 4 6 -3 10 -11 10 -16z
m-92 -48 c-15 -5 -19 4 -11 24 6 18 7 18 13 -1 4 -10 3 -21 -2 -23z"/>
<path d="M2058 1550 c18 -11 36 -20 40 -20 14 1 -43 40 -58 40 -8 0 0 -9 18
-20z"/>
<path d="M1230 2279 c0 -5 5 -7 10 -4 6 3 10 8 10 11 0 2 -4 4 -10 4 -5 0 -10
-5 -10 -11z"/>
<path d="M1396 2278 c3 -4 12 -8 20 -8 8 0 14 4 14 8 0 4 -9 8 -19 8 -11 0
-17 -4 -15 -8z"/>
<path d="M1445 2269 c-4 -6 -5 -12 -2 -15 2 -3 7 2 10 11 7 17 1 20 -8 4z"/>
<path d="M1506 2242 c-3 -5 1 -9 9 -9 8 0 12 4 9 9 -3 4 -7 8 -9 8 -2 0 -6 -4
-9 -8z"/>
<path d="M1615 2240 c3 -5 11 -10 16 -10 6 0 7 5 4 10 -3 6 -11 10 -16 10 -6
0 -7 -4 -4 -10z"/>
<path d="M1675 2230 c-3 -5 -1 -10 4 -10 6 0 11 5 11 10 0 6 -2 10 -4 10 -3 0
-8 -4 -11 -10z"/>
<path d="M1550 2221 c0 -6 4 -13 10 -16 6 -3 7 1 4 9 -7 18 -14 21 -14 7z"/>
<path d="M1738 2202 c19 -17 31 -36 28 -41 -4 -5 -3 -12 2 -15 5 -3 9 3 9 12
0 20 -23 49 -52 64 -11 6 -5 -3 13 -20z"/>
<path d="M1609 2178 c-5 -18 -6 -38 -1 -34 7 8 12 36 6 36 -2 0 -4 -1 -5 -2z"/>
<path d="M1715 2140 c3 -5 8 -10 11 -10 2 0 4 5 4 10 0 6 -5 10 -11 10 -5 0
-7 -4 -4 -10z"/>
<path d="M1787 2136 c-4 -10 -1 -13 8 -9 8 3 12 9 9 14 -7 12 -11 11 -17 -5z"/>
<path d="M1882 2129 c2 -12 13 -26 26 -30 l22 -8 -22 29 c-26 36 -30 37 -26 9z"/>
<path d="M1811 2102 c6 -10 21 -18 33 -19 21 -1 21 -1 -1 9 -13 6 -23 15 -23
20 0 4 -5 8 -10 8 -6 0 -6 -7 1 -18z"/>
<path d="M1120 2099 c0 -5 5 -7 10 -4 6 3 10 8 10 11 0 2 -4 4 -10 4 -5 0 -10
-5 -10 -11z"/>
<path d="M1738 2083 c6 -2 10 -8 8 -12 -3 -4 1 -8 9 -8 11 0 12 4 4 14 -6 7
-17 13 -23 12 -7 0 -6 -2 2 -6z"/>
<path d="M1895 2063 c4 -15 8 -44 10 -63 2 -22 8 -34 16 -32 10 2 10 0 1 -11
-9 -11 -8 -18 9 -33 20 -18 20 -18 18 24 -2 28 -8 42 -17 42 -8 0 -12 6 -8 15
3 8 0 15 -7 15 -9 0 -9 2 -1 8 13 8 2 46 -16 57 -7 4 -9 -2 -5 -22z"/>
<path d="M1000 2061 c0 -6 4 -13 10 -16 6 -3 7 1 4 9 -7 18 -14 21 -14 7z"/>
<path d="M1338 2053 c6 -2 18 -2 25 0 6 3 1 5 -13 5 -14 0 -19 -2 -12 -5z"/>
<path d="M1862 2045 c1 -11 -1 -27 -6 -35 -7 -11 -5 -11 9 1 14 14 15 21 6 35
-11 18 -11 18 -9 -1z"/>
<path d="M1800 2039 c0 -5 5 -7 10 -4 6 3 10 8 10 11 0 2 -4 4 -10 4 -5 0 -10
-5 -10 -11z"/>
<path d="M1951 2014 c0 -11 3 -14 6 -6 3 7 2 16 -1 19 -3 4 -6 -2 -5 -13z"/>
<path d="M1590 2014 c0 -13 18 -39 24 -34 2 3 -2 14 -10 24 -8 11 -14 16 -14
10z"/>
<path d="M1630 2013 c1 -8 70 -46 76 -41 1 2 -15 14 -37 26 -21 12 -39 19 -39
15z"/>
<path d="M1495 1989 c-4 -6 -5 -12 -2 -15 2 -3 7 2 10 11 7 17 1 20 -8 4z"/>
<path d="M1730 1979 c0 -5 5 -7 10 -4 6 3 10 8 10 11 0 2 -4 4 -10 4 -5 0 -10
-5 -10 -11z"/>
<path d="M1538 1973 c7 -3 16 -2 19 1 4 3 -2 6 -13 5 -11 0 -14 -3 -6 -6z"/>
<path d="M1960 1976 c0 -2 7 -7 16 -10 8 -3 12 -2 9 4 -6 10 -25 14 -25 6z"/>
<path d="M1830 1940 c0 -6 7 -10 15 -10 8 0 15 2 15 4 0 2 -7 6 -15 10 -8 3
-15 1 -15 -4z"/>
<path d="M1770 1930 c0 -5 7 -7 15 -4 8 4 15 8 15 10 0 2 -7 4 -15 4 -8 0 -15
-4 -15 -10z"/>
<path d="M1571 1920 c-1 -18 18 -40 34 -40 5 0 3 6 -6 13 -9 7 -18 19 -22 27
-5 13 -6 13 -6 0z"/>
<path d="M1966 1921 c-3 -5 1 -14 8 -20 12 -10 13 -8 9 8 -6 23 -9 25 -17 12z"/>
<path d="M1868 1909 c-5 -47 -4 -68 2 -64 4 3 10 -7 13 -20 2 -14 0 -28 -4
-31 -5 -3 -9 -10 -9 -17 0 -6 7 -1 16 11 9 13 13 30 10 39 -4 9 -9 32 -12 52
-6 39 -13 52 -16 30z"/>
<path d="M1490 1889 c0 -5 5 -7 10 -4 6 3 10 8 10 11 0 2 -4 4 -10 4 -5 0 -10
-5 -10 -11z"/>
<path d="M1731 1897 c2 -1 13 -9 24 -17 19 -14 19 -14 6 3 -7 9 -18 17 -24 17
-6 0 -8 -1 -6 -3z"/>
<path d="M1633 1877 c2 -7 18 -13 35 -15 46 -5 39 -19 -14 -30 -50 -11 -95 -5
-72 9 10 7 8 9 -7 10 -59 4 -105 -17 -90 -41 10 -16 -16 -12 -64 10 -47 22
-77 25 -85 11 -4 -5 2 -7 12 -4 11 2 48 -11 83 -29 64 -34 64 -34 94 -16 17
10 41 18 54 18 14 0 51 5 84 12 l58 12 40 -43 c23 -24 44 -53 49 -65 7 -19 9
-19 15 -4 9 22 -49 104 -102 144 -38 29 -97 42 -90 21z m-73 -47 c0 -5 -8 -10
-17 -10 -15 0 -16 2 -3 10 19 12 20 12 20 0z"/>
<path d="M1999 1888 c-5 -18 -6 -38 -1 -34 7 8 12 36 6 36 -2 0 -4 -1 -5 -2z"/>
<path d="M1002 1838 c-24 -24 -42 -51 -42 -64 0 -13 -4 -26 -10 -29 -5 -3 -10
-15 -10 -26 0 -10 5 -19 10 -19 6 0 10 5 10 11 0 7 12 32 28 56 l27 44 70 -2
c80 -3 143 -21 174 -50 12 -12 25 -18 29 -14 4 4 -2 13 -13 21 -16 12 -17 18
-8 33 10 15 9 20 -2 25 -8 3 -22 3 -30 -1 -9 -3 -21 1 -28 10 -16 20 -67 29
-67 11 0 -10 -7 -11 -30 -3 -29 11 -41 29 -18 29 6 0 8 3 5 6 -10 11 -37 -17
-37 -37 0 -12 -7 -19 -20 -19 -11 0 -20 4 -20 10 0 5 9 14 20 20 20 11 27 30
12 30 -5 0 -28 -19 -50 -42z m92 -9 c-8 -14 -24 -10 -24 6 0 9 6 12 15 9 8 -4
12 -10 9 -15z"/>
<path d="M1835 1811 c0 -55 11 -60 14 -6 1 25 -2 45 -6 45 -4 0 -8 -18 -8 -39z"/>
<path d="M1298 1823 c7 -3 16 -2 19 1 4 3 -2 6 -13 5 -11 0 -14 -3 -6 -6z"/>
<path d="M1920 1805 c0 -6 4 -17 9 -25 13 -20 2 -34 -15 -19 -7 6 -11 16 -7
22 4 6 1 7 -6 3 -9 -6 -9 -12 3 -25 34 -37 58 -9 30 34 -8 11 -14 15 -14 10z"/>
<path d="M1410 1769 c0 -8 26 -19 46 -19 27 0 14 18 -16 22 -16 3 -30 1 -30
-3z"/>
<path d="M1205 1740 c-16 -4 -23 -9 -15 -10 8 -2 -12 -6 -45 -10 -33 -4 -75
-10 -94 -15 -27 -6 -32 -4 -26 6 5 8 4 11 -1 6 -5 -5 -9 -12 -9 -15 0 -4 -4
-13 -9 -20 -14 -22 -2 -22 55 -1 36 14 68 19 97 16 23 -2 42 -1 42 4 0 5 12 9
28 10 24 0 25 1 7 9 -16 7 -17 9 -3 9 9 1 20 6 23 11 7 11 -6 11 -50 0z"/>
<path d="M1462 1743 c-7 -2 -16 -13 -22 -22 -7 -14 0 -27 30 -62 44 -48 56
-39 14 10 -35 42 -15 40 22 -2 26 -30 155 -92 140 -68 -4 5 0 11 6 14 7 2 -9
8 -35 12 -36 5 -61 18 -93 46 -25 22 -51 39 -57 39 -7 1 -1 10 12 20 22 19 13
25 -17 13z"/>
<path d="M1505 1729 c-24 -9 -22 -10 30 -14 132 -11 210 -25 220 -38 5 -8 20
-17 33 -21 12 -4 22 -12 22 -17 0 -6 5 -7 11 -3 8 4 -2 14 -25 26 -20 10 -34
23 -31 27 13 22 -43 38 -134 40 -52 1 -97 4 -100 5 -3 2 -15 0 -26 -5z"/>
<path d="M1365 1691 c-3 -5 -1 -12 5 -16 5 -3 10 1 10 9 0 18 -6 21 -15 7z"/>
<path d="M1825 1690 c-3 -5 1 -10 10 -10 9 0 13 5 10 10 -3 6 -8 10 -10 10 -2
0 -7 -4 -10 -10z"/>
<path d="M1228 1681 c-2 -4 -30 -19 -63 -34 -69 -31 -60 -36 14 -7 30 11 52
15 55 9 2 -5 3 -4 2 3 -2 7 4 18 12 24 13 9 13 11 -1 11 -9 0 -18 -3 -19 -6z"/>
<path d="M1788 1683 c7 -3 16 -2 19 1 4 3 -2 6 -13 5 -11 0 -14 -3 -6 -6z"/>
<path d="M1720 1661 c0 -6 4 -13 10 -16 6 -3 7 1 4 9 -7 18 -14 21 -14 7z"/>
<path d="M1282 1636 c-10 -14 -21 -23 -24 -21 -3 3 -4 -5 -4 -18 1 -12 -4 -21
-11 -19 -15 2 -17 -24 -3 -33 11 -7 45 54 41 74 -1 8 2 10 10 5 7 -4 10 -3 5
4 -3 5 0 12 6 15 7 2 10 7 7 11 -4 4 -16 -4 -27 -18z"/>
<path d="M1386 1616 c17 -51 58 -78 67 -45 3 10 1 19 -3 19 -5 0 -11 8 -13 18
-4 15 -5 15 -6 -2 -1 -15 -4 -16 -16 -6 -8 7 -15 20 -15 30 0 10 -6 20 -14 23
-12 5 -12 0 0 -37z"/>
<path d="M1701 1649 c-1 -9 6 -22 14 -29 13 -11 13 -15 3 -21 -9 -6 -9 -9 -1
-9 17 0 25 17 12 25 -6 4 -14 17 -19 29 -6 15 -9 16 -9 5z"/>
<path d="M998 1643 c6 -2 9 -10 6 -15 -4 -7 -2 -8 5 -4 13 9 5 26 -12 25 -9 0
-8 -2 1 -6z"/>
<path d="M1780 1614 c14 -17 27 -30 29 -28 2 2 -1 10 -7 17 -7 8 -8 18 -4 23
4 5 3 6 -2 2 -5 -4 -16 -2 -25 5 -9 6 -4 -2 9 -19z"/>
<path d="M1045 1620 c3 -5 8 -10 11 -10 2 0 4 5 4 10 0 6 -5 10 -11 10 -5 0
-7 -4 -4 -10z"/>
<path d="M1174 1616 c-10 -8 -15 -18 -11 -22 4 -4 17 2 30 14 24 25 12 30 -19
8z"/>
<path d="M1310 1620 c0 -5 5 -10 11 -10 5 0 7 5 4 10 -3 6 -8 10 -11 10 -2 0
-4 -4 -4 -10z"/>
<path d="M1120 1585 c-24 -14 -24 -14 -4 -15 12 0 24 7 28 15 6 18 7 18 -24 0z"/>
<path d="M1469 1595 c0 -6 -3 -22 -5 -37 -5 -29 13 -48 26 -27 6 9 12 5 20
-17 23 -57 30 -70 60 -122 16 -29 30 -57 30 -62 0 -5 -24 8 -52 30 -33 25 -64
40 -82 40 -40 0 -19 -23 36 -39 50 -15 72 -32 104 -83 16 -24 24 -53 24 -79 0
-23 3 -39 7 -35 21 20 1 131 -25 141 -11 4 -13 8 -5 13 7 5 -1 32 -28 86 -21
44 -39 85 -39 91 0 15 -70 113 -71 100z"/>
<path d="M1920 1592 c0 -5 7 -9 15 -9 8 0 12 4 9 9 -3 4 -9 8 -15 8 -5 0 -9
-4 -9 -8z"/>
<path d="M1871 1580 c0 -8 4 -22 9 -30 12 -18 12 -2 0 25 -6 13 -9 15 -9 5z"/>
<path d="M853 1540 c0 -25 2 -35 4 -22 2 12 2 32 0 45 -2 12 -4 2 -4 -23z"/>
<path d="M1940 1554 c0 -8 5 -12 10 -9 6 3 10 10 10 16 0 5 -4 9 -10 9 -5 0
-10 -7 -10 -16z"/>
<path d="M1206 1534 c-11 -28 -6 -39 9 -20 8 11 15 23 15 28 0 14 -18 9 -24
-8z"/>
<path d="M1430 1489 c-46 -19 -54 -54 -13 -62 26 -5 26 -4 9 9 -23 16 -22 18
22 30 33 9 45 27 20 31 -7 1 -24 -3 -38 -8z"/>
<path d="M1215 1480 c-3 -5 0 -10 9 -10 8 0 28 -12 45 -26 37 -31 41 -18 6 20
-25 27 -49 33 -60 16z"/>
<path d="M1469 1440 c-31 -25 -12 -26 21 0 14 11 20 20 14 20 -7 0 -22 -9 -35
-20z"/>
<path d="M1183 1425 c0 -8 4 -15 8 -15 4 0 9 7 13 15 3 9 0 15 -8 15 -7 0 -13
-7 -13 -15z"/>
<path d="M1247 1419 c12 -12 25 -20 28 -17 3 3 -7 13 -22 23 l-28 17 22 -23z"/>
<path d="M1345 1419 c4 -6 10 -8 13 -5 3 3 11 1 19 -6 11 -8 12 -7 7 6 -3 9
-15 16 -26 16 -11 0 -16 -5 -13 -11z"/>
<path d="M1824 1405 c-3 -8 -4 -20 -2 -27 3 -7 7 -1 10 15 6 29 1 36 -8 12z"/>
<path d="M1296 1401 c-3 -4 6 -6 19 -3 14 2 25 6 25 8 0 8 -39 4 -44 -5z"/>
<path d="M1910 1379 c0 -5 5 -7 10 -4 6 3 10 8 10 11 0 2 -4 4 -10 4 -5 0 -10
-5 -10 -11z"/>
<path d="M1177 1373 c-4 -3 -7 -13 -7 -22 1 -13 3 -13 11 2 11 19 8 33 -4 20z"/>
<path d="M1260 1366 c0 -9 -7 -16 -15 -16 -17 0 -20 -16 -5 -25 5 -3 19 3 30
13 18 17 19 20 5 32 -12 10 -15 10 -15 -4z"/>
<path d="M1841 1364 c0 -11 3 -14 6 -6 3 7 2 16 -1 19 -3 4 -6 -2 -5 -13z"/>
<path d="M1398 1360 c-9 -6 -26 -9 -39 -8 -12 2 -24 -3 -26 -10 -4 -10 2 -11
24 -6 31 8 84 33 68 33 -5 0 -17 -4 -27 -9z"/>
<path d="M1903 1335 c4 -8 2 -17 -3 -20 -5 -3 -7 -12 -4 -20 4 -8 9 -13 14
-10 11 7 10 65 -2 65 -5 0 -8 -7 -5 -15z"/>
<path d="M1156 1327 c3 -10 9 -15 12 -12 3 3 0 11 -7 18 -10 9 -11 8 -5 -6z"/>
<path d="M1198 1313 c-20 -24 -30 -53 -18 -53 6 0 11 5 11 10 1 6 2 16 3 23 1
6 7 11 12 10 6 -1 11 5 11 13 0 18 -1 18 -19 -3z"/>
<path d="M1856 1321 c-3 -5 1 -14 9 -21 12 -10 15 -10 15 3 0 19 -16 31 -24
18z"/>
<path d="M1398 1313 c-10 -2 -18 -9 -18 -14 0 -5 -5 -9 -11 -9 -5 0 -7 5 -4
10 4 7 -2 9 -17 6 -38 -7 -58 -18 -52 -27 3 -5 -5 -13 -18 -18 -13 -6 -20 -10
-16 -10 4 -1 1 -13 -7 -28 -9 -18 -11 -32 -4 -44 12 -23 12 -32 -1 -24 -14 9
-12 -18 3 -34 6 -8 7 -11 1 -8 -6 3 -16 -9 -22 -27 -11 -30 -8 -43 29 -137 51
-126 65 -149 93 -149 17 0 19 -2 6 -11 -25 -18 77 -2 104 16 29 19 40 45 26
59 -16 16 -12 25 9 19 13 -3 23 2 30 16 8 14 8 21 1 21 -5 0 -10 -8 -10 -17 0
-13 -3 -14 -11 -6 -9 9 -18 8 -35 -4 -13 -8 -24 -11 -24 -7 0 5 -4 2 -10 -6
-7 -12 -13 -10 -32 11 -24 25 -30 29 -49 29 -10 0 -5 47 6 58 1 1 21 -4 43
-11 23 -8 43 -11 44 -7 2 4 23 11 48 15 41 6 43 5 25 -8 -11 -8 -29 -17 -40
-20 -11 -3 -1 -4 22 -4 22 1 39 5 37 9 -3 4 9 34 26 67 16 33 30 71 30 84 0
40 -47 135 -84 171 -20 18 -32 36 -29 40 7 7 -62 6 -89 -1z m86 -29 c9 -3 13
-11 9 -18 -4 -6 -9 -19 -10 -30 -3 -16 0 -15 16 5 19 23 20 23 27 4 4 -11 15
-25 23 -32 9 -6 12 -15 8 -19 -11 -11 -158 -13 -179 -2 -10 5 -19 4 -23 -2 -6
-10 -82 -12 -98 -3 -4 3 0 12 10 22 10 9 23 25 29 36 12 22 54 33 54 14 0 -8
5 -7 18 3 26 24 84 34 116 22z m76 -203 c-9 -15 -11 -14 -14 11 -2 20 -22 19
-22 -2 0 -11 4 -20 8 -20 4 0 8 -6 8 -14 0 -8 5 -16 11 -18 5 -2 -2 -15 -18
-28 -24 -22 -25 -22 -9 -2 12 13 14 22 7 22 -7 0 -10 4 -6 9 3 5 1 12 -5 16
-5 3 -14 -5 -20 -19 -5 -14 -18 -30 -29 -35 -43 -23 -121 -5 -121 28 0 7 -5 9
-12 5 -7 -4 -8 -3 -4 4 4 7 3 12 -3 12 -7 0 -7 8 -1 26 7 16 7 23 0 19 -6 -3
-10 -1 -10 4 0 6 -7 11 -16 11 -11 0 -15 -6 -11 -20 7 -26 -10 -36 -18 -10 -8
25 1 40 25 40 10 0 22 5 25 10 4 7 -3 9 -19 6 -14 -3 -26 -1 -26 3 0 12 46 20
60 11 6 -4 11 -13 10 -21 -1 -8 -2 -23 -1 -34 1 -16 3 -17 10 -5 6 8 7 18 5
22 -3 5 -2 17 1 28 5 15 14 19 41 18 19 -1 37 -5 40 -9 2 -5 16 -4 30 1 20 8
25 7 21 -2 -2 -7 -8 -12 -13 -11 -5 1 -10 -8 -11 -20 -3 -34 -8 -51 -17 -66
-7 -11 -10 -11 -17 0 -11 17 -12 52 -1 45 4 -2 9 6 10 19 1 18 -3 23 -17 22
-11 -1 -17 -5 -14 -10 2 -4 0 -14 -7 -22 -7 -9 -8 -15 0 -20 7 -4 7 -12 0 -25
-12 -22 -1 -31 30 -25 27 5 40 21 40 52 0 12 11 35 25 50 15 17 23 21 19 11
-4 -12 -1 -18 9 -18 10 0 14 7 11 23 -2 12 2 5 11 -17 10 -26 12 -44 5 -55z
m-283 -48 c25 -28 44 -85 46 -140 1 -22 8 -35 20 -39 30 -9 109 -6 116 5 4 6
12 7 21 0 12 -8 10 -14 -15 -34 -57 -47 -120 -26 -158 51 -32 64 -32 65 -9 58
9 -2 7 1 -5 7 -21 11 -22 13 -5 26 16 13 15 14 -5 10 -17 -4 -23 1 -28 22 -3
14 -8 34 -11 44 -8 25 7 21 33 -10z m63 -68 c7 -9 8 -15 2 -15 -5 0 -12 7 -16
15 -3 8 -4 15 -2 15 2 0 9 -7 16 -15z m35 -71 c14 -9 25 -20 25 -24 0 -16 -34
-3 -48 18 -17 26 -10 28 23 6z"/>
<path d="M1430 1258 c0 -19 2 -20 10 -8 13 19 13 30 0 30 -5 0 -10 -10 -10
-22z"/>
<path d="M1350 1062 c0 -4 9 -13 20 -20 11 -7 20 -9 20 -4 0 4 -9 13 -20 20
-11 7 -20 9 -20 4z"/>
<path d="M1510 1310 c0 -5 5 -10 11 -10 5 0 7 5 4 10 -3 6 -8 10 -11 10 -2 0
-4 -4 -4 -10z"/>
<path d="M1540 1285 c0 -2 9 -19 20 -37 19 -32 20 -32 20 -8 0 14 -9 31 -20
38 -11 7 -20 10 -20 7z"/>
<path d="M1802 1260 c0 -14 2 -19 5 -12 2 6 2 18 0 25 -3 6 -5 1 -5 -13z"/>
<path d="M1911 1244 c0 -11 3 -14 6 -6 3 7 2 16 -1 19 -3 4 -6 -2 -5 -13z"/>
<path d="M1850 1240 c-9 -6 -10 -10 -3 -10 6 0 15 5 18 10 8 12 4 12 -15 0z"/>
<path d="M1160 1205 c0 -19 4 -35 8 -35 5 0 8 16 8 35 -1 46 -16 46 -16 0z"/>
<path d="M1208 1205 c-3 -14 -1 -25 3 -25 5 0 9 11 9 25 0 14 -2 25 -4 25 -2
0 -6 -11 -8 -25z"/>
<path d="M1796 1212 c-3 -5 1 -15 9 -22 16 -14 20 -3 6 19 -5 8 -11 9 -15 3z"/>
<path d="M1011 1194 c0 -11 3 -14 6 -6 3 7 2 16 -1 19 -3 4 -6 -2 -5 -13z"/>
<path d="M1745 1190 c-3 -5 -1 -10 4 -10 6 0 11 5 11 10 0 6 -2 10 -4 10 -3 0
-8 -4 -11 -10z"/>
<path d="M1050 1172 c0 -6 5 -14 10 -17 6 -3 10 -19 10 -34 0 -15 7 -42 16
-60 9 -17 13 -38 11 -45 -7 -18 22 -14 34 5 12 19 11 29 -2 29 -5 0 -8 -4 -5
-8 2 -4 1 -14 -5 -22 -7 -13 -9 -12 -10 3 -2 21 -3 27 -13 50 -5 9 -6 24 -2
32 3 8 1 15 -4 15 -6 0 -10 5 -10 11 0 5 6 7 13 3 9 -6 9 -5 0 8 -7 8 -9 19
-5 24 4 5 3 6 -2 2 -5 -4 -15 -3 -23 3 -9 8 -13 8 -13 1z"/>
<path d="M1740 1148 c0 -16 5 -28 12 -28 6 0 3 -6 -8 -14 -18 -14 -18 -15 -1
-21 9 -4 17 -11 17 -17 0 -5 -4 -7 -9 -3 -11 6 -30 -51 -28 -83 1 -12 9 -28
17 -33 13 -9 12 -10 -2 -5 -13 4 -18 0 -18 -14 0 -26 -3 -25 -36 5 -28 26 -44
32 -44 15 0 -5 12 -13 26 -16 22 -6 24 -8 10 -16 -9 -5 -21 -6 -28 -2 -7 4 -8
3 -4 -5 4 -7 16 -9 27 -6 11 4 26 2 34 -5 9 -8 15 -8 20 0 11 18 26 0 19 -23
-5 -18 -4 -20 7 -10 9 10 10 18 1 37 -8 19 -8 27 3 36 15 13 39 4 30 -10 -3
-5 -1 -11 4 -14 5 -3 11 8 13 25 3 16 1 32 -4 35 -12 8 -10 52 4 56 8 3 8 12
0 34 -6 16 -11 22 -12 14 -2 -23 -7 -45 -15 -69 -4 -12 -2 -28 4 -35 9 -11 6
-15 -10 -19 -20 -5 -21 -3 -16 29 3 19 2 34 -3 34 -5 0 -7 7 -3 16 4 10 8 12
13 5 13 -22 8 81 -6 107 l-14 27 0 -27z m5 -138 c3 -5 1 -10 -4 -10 -6 0 -11
5 -11 10 0 6 2 10 4 10 3 0 8 -4 11 -10z"/>
<path d="M1164 1140 c4 -14 8 -31 8 -37 1 -7 5 -13 10 -13 10 0 -1 51 -15 65
-6 7 -7 2 -3 -15z"/>
<path d="M1655 1140 c-3 -5 -1 -10 4 -10 6 0 11 5 11 10 0 6 -2 10 -4 10 -3 0
-8 -4 -11 -10z"/>
<path d="M1820 1139 c0 -6 -9 -8 -21 -4 -19 6 -20 5 -8 -8 8 -8 16 -13 18 -11
2 2 11 -1 21 -6 14 -8 16 -5 12 15 -4 24 -22 35 -22 14z"/>
<path d="M1710 1125 c0 -8 4 -15 10 -15 5 0 7 7 4 15 -4 8 -8 15 -10 15 -2 0
-4 -7 -4 -15z"/>
<path d="M1045 1120 c-3 -5 -1 -10 4 -10 6 0 11 5 11 10 0 6 -2 10 -4 10 -3 0
-8 -4 -11 -10z"/>
<path d="M1111 1094 c0 -11 3 -14 6 -6 3 7 2 16 -1 19 -3 4 -6 -2 -5 -13z"/>
<path d="M1137 1073 c3 -7 6 -13 8 -13 2 0 5 6 8 13 3 8 -1 14 -8 14 -7 0 -11
-6 -8 -14z"/>
<path d="M1176 1033 c-6 -14 -5 -15 5 -6 7 7 10 15 7 18 -3 3 -9 -2 -12 -12z"/>
<path d="M1646 1037 c3 -10 9 -15 12 -12 3 3 0 11 -7 18 -10 9 -11 8 -5 -6z"/>
<path d="M1659 980 c39 -35 38 -34 38 -15 0 8 -2 13 -4 11 -3 -2 -13 4 -24 15
-10 10 -25 19 -31 19 -7 0 2 -14 21 -30z"/>
<path d="M1195 990 c-4 -6 -11 -8 -16 -5 -5 4 -9 -1 -9 -9 0 -10 6 -13 17 -9
10 4 14 2 10 -4 -3 -5 0 -10 8 -10 8 0 15 7 15 14 0 8 -5 11 -12 7 -8 -5 -9
-2 -5 9 7 19 2 23 -8 7z"/>
<path d="M1577 974 c-4 -4 -7 -14 -7 -23 0 -11 3 -12 11 -4 6 6 10 16 7 23 -2
6 -7 8 -11 4z"/>
<path d="M1370 950 c0 -12 8 -12 35 0 18 8 17 9 -7 9 -16 1 -28 -3 -28 -9z"/>
<path d="M1153 935 c0 -8 6 -15 12 -15 6 0 12 7 12 15 0 8 -6 15 -12 15 -6 0
-12 -7 -12 -15z"/>
<path d="M1120 920 c0 -5 5 -10 11 -10 5 0 7 5 4 10 -3 6 -8 10 -11 10 -2 0
-4 -4 -4 -10z"/>
<path d="M1460 920 c0 -5 5 -10 11 -10 5 0 7 5 4 10 -3 6 -8 10 -11 10 -2 0
-4 -4 -4 -10z"/>
<path d="M1545 868 c-37 -76 -64 -97 -138 -105 -56 -6 -58 -5 -91 30 -19 20
-41 56 -49 79 -9 24 -16 35 -16 25 -1 -28 39 -106 67 -127 13 -11 33 -20 43
-20 10 0 22 -7 27 -16 8 -15 10 -15 15 0 4 9 16 16 27 16 43 0 97 38 118 82
21 43 38 98 30 98 -2 0 -17 -28 -33 -62z"/>
<path d="M1562 808 c-7 -7 -12 -20 -12 -30 0 -10 -5 -18 -11 -18 -5 0 -7 -5
-4 -11 9 -14 16 -5 31 36 13 39 13 40 -4 23z"/>
<path d="M1217 773 c-4 -3 -7 -11 -7 -17 0 -6 5 -5 12 2 6 6 9 14 7 17 -3 3
-9 2 -12 -2z"/>
<path d="M1610 773 c0 -6 -3 -18 -6 -27 -3 -9 -1 -16 6 -16 6 0 9 4 6 9 -4 5
0 11 6 14 10 4 11 7 1 18 -8 8 -13 9 -13 2z"/>
<path d="M1258 763 c7 -3 16 -2 19 1 4 3 -2 6 -13 5 -11 0 -14 -3 -6 -6z"/>
<path d="M1306 743 c-3 -3 -3 -10 0 -14 7 -12 34 -11 34 0 0 11 -26 22 -34 14z"/>
<path d="M1493 733 c3 -13 1 -23 -3 -23 -5 0 -8 -9 -7 -20 1 -22 12 -26 22
-10 4 6 12 8 18 4 7 -3 5 0 -3 8 -8 7 -17 22 -18 33 -2 11 -6 22 -9 25 -3 3
-3 -5 0 -17z"/>
<path d="M1407 711 c-4 -17 -3 -21 5 -13 5 5 8 16 6 23 -3 8 -7 3 -11 -10z"/>
<path d="M1447 683 c-3 -16 -2 -31 1 -35 4 -4 8 9 9 28 3 41 -3 45 -10 7z"/>
<path d="M1554 688 c-13 -16 -14 -19 -2 -10 13 10 17 10 21 0 4 -10 7 -10 18
1 8 8 9 11 2 7 -6 -3 -14 -2 -17 3 -4 6 7 8 24 6 18 -3 28 0 25 5 -11 18 -52
10 -71 -12z"/>
<path d="M1515 640 c3 -5 10 -10 16 -10 5 0 9 5 9 10 0 6 -7 10 -16 10 -8 0
-12 -4 -9 -10z"/>
<path d="M1360 574 c0 -14 3 -14 15 -4 8 7 15 14 15 16 0 2 -7 4 -15 4 -8 0
-15 -7 -15 -16z"/>
<path d="M2360 395 l0 -45 268 0 267 0 0 45 0 45 -267 0 -268 0 0 -45z m66 10
c3 -8 -1 -22 -10 -30 -15 -15 -17 -15 -22 -1 -8 20 2 46 16 46 6 0 13 -7 16
-15z m54 1 c0 -8 2 -21 5 -29 4 -8 0 -14 -10 -14 -10 0 -15 10 -15 29 0 15 5
28 10 28 6 0 10 -6 10 -14z m70 -14 c0 -19 -5 -29 -15 -29 -10 0 -15 10 -15
29 0 18 5 28 15 28 10 0 15 -10 15 -28z m62 -2 c-2 -16 -8 -30 -13 -30 -5 0
-9 14 -9 30 0 18 5 30 13 30 9 0 12 -10 9 -30z m61 21 c3 8 6 -2 6 -21 0 -23
-2 -30 -8 -21 -7 11 -9 11 -14 0 -3 -8 -6 2 -6 21 0 23 2 30 8 21 7 -11 9 -11
14 0z m67 -21 c0 -16 -4 -30 -10 -30 -5 0 -10 14 -10 30 0 17 5 30 10 30 6 0
10 -13 10 -30z m60 -4 c0 -13 -6 -23 -15 -23 -17 0 -17 2 -9 34 8 28 24 20 24
-11z m54 2 c4 -17 2 -28 -4 -28 -5 0 -10 14 -10 32 0 36 4 35 14 -4z"/>
<path d="M2392 283 c-9 -53 -6 -87 5 -55 4 10 8 10 20 1 12 -11 13 -5 7 42 -9
76 -20 80 -32 12z m15 -25 c-3 -7 -5 -2 -5 12 0 14 2 19 5 13 2 -7 2 -19 0
-25z"/>
<path d="M2526 285 c9 -92 21 -92 29 1 3 39 2 51 -4 34 l-8 -25 -12 25 c-9 21
-10 15 -5 -35z"/>
<path d="M2590 281 c0 -34 4 -61 10 -61 6 0 10 24 10 54 0 30 -4 58 -10 61 -6
4 -10 -17 -10 -54z"/>
<path d="M2643 333 c-17 -6 -16 -33 2 -57 20 -26 19 -42 -1 -25 -14 12 -16 11
-13 -6 3 -11 11 -20 19 -20 18 0 26 43 11 58 -6 6 -11 18 -11 27 0 13 1 13 10
0 8 -13 10 -13 10 2 0 20 -10 27 -27 21z"/>
<path d="M2704 326 c-3 -8 -4 -33 -2 -57 2 -31 7 -44 18 -44 22 0 27 100 5
109 -9 3 -18 0 -21 -8z m13 -68 c-2 -13 -4 -3 -4 22 0 25 2 35 4 23 2 -13 2
-33 0 -45z"/>
<path d="M2837 285 c6 -59 9 -73 17 -64 2 2 6 31 9 64 5 52 4 58 -8 42 -13
-18 -13 -18 -18 0 -3 10 -3 -9 0 -42z"/>
<path d="M2450 276 c0 -49 2 -56 20 -56 22 0 33 31 28 76 -2 21 -9 30 -25 32
-22 3 -23 0 -23 -52z m27 -18 c-2 -13 -4 -3 -4 22 0 25 2 35 4 23 2 -13 2 -33
0 -45z"/>
<path d="M2762 276 c0 -60 14 -77 21 -23 l4 32 1 -32 c1 -18 6 -33 12 -33 5 0
9 23 7 53 -2 44 -5 52 -23 55 -20 3 -21 -2 -22 -52z m25 22 c-3 -8 -6 -5 -6 6
-1 11 2 17 5 13 3 -3 4 -12 1 -19z"/>
<path d="M2360 158 l0 -53 266 2 266 1 2 51 1 51 -267 0 -268 0 0 -52z m50 2
c0 -16 -4 -30 -10 -30 -5 0 -10 14 -10 30 0 17 5 30 10 30 6 0 10 -13 10 -30z
m36 0 c1 -17 -4 -30 -11 -30 -7 0 -12 13 -11 30 1 39 21 39 22 0z m34 13 c0
-10 -5 -25 -10 -33 -7 -11 -10 -7 -10 18 0 17 5 32 10 32 6 0 10 -8 10 -17z
m22 -13 c3 -16 1 -30 -4 -30 -4 0 -8 14 -8 30 0 17 2 30 4 30 2 0 6 -13 8 -30z
m25 -17 c-3 -10 -5 -2 -5 17 0 19 2 27 5 18 2 -10 2 -26 0 -35z m30 17 c0 -16
-4 -30 -9 -30 -4 0 -8 14 -8 30 0 17 4 30 8 30 5 0 9 -13 9 -30z m54 -2 l-5
-33 -7 30 -7 30 -1 -27 c-1 -38 -21 -36 -21 2 0 25 4 30 23 30 21 0 23 -4 18
-32z m56 2 c0 -32 -14 -40 -23 -15 -7 18 2 45 14 45 5 0 9 -13 9 -30z m33 0
c0 -16 -4 -30 -10 -30 -5 0 -10 14 -10 30 0 17 5 30 10 30 6 0 10 -13 10 -30z
m40 0 c0 -17 -5 -27 -15 -27 -10 0 -15 10 -15 27 0 17 5 27 15 27 10 0 15 -10
15 -27z m22 0 c-6 -39 -12 -39 -12 0 0 17 4 30 8 30 5 0 7 -13 4 -30z m33 0
c0 -16 -3 -30 -7 -30 -5 0 -8 14 -8 30 0 17 3 30 8 30 4 0 7 -13 7 -30z m35 0
c0 -16 -4 -30 -10 -30 -5 0 -10 14 -10 30 0 17 5 30 10 30 6 0 10 -13 10 -30z
m30 0 c0 -16 -4 -30 -10 -30 -5 0 -10 14 -10 30 0 17 5 30 10 30 6 0 10 -13
10 -30z"/>
</g>
</svg>
